<svg id="Layer_1" data-name="Layer 1" xmlns="http://www.w3.org/2000/svg" width="18.892" height="29.156" viewBox="0 0 18.892 29.156">
  <ellipse id="Ellipse_101" data-name="Ellipse 101" cx="2.352" cy="2.352" rx="2.352" ry="2.352" transform="translate(0 0.034)" fill="#aaa"/>
  <path id="Path_253" data-name="Path 253" d="M112.221,46.8l-1.552-.782a.6.6,0,0,0-.716.131.759.759,0,0,0-.1.125L103.689,56.91l-2.228,3.766c0,.025-.02.048-.032.073l-.014.029a.632.632,0,0,0-.023.088.353.353,0,0,0,0,.048h0l-.014.174V74.364a.768.768,0,0,0,.766.743h2.368a.77.77,0,0,0,.68-.793V61.5a1.829,1.829,0,0,1,.184-.8L112.8,48.013C113.078,47.466,112.865,47.133,112.221,46.8Z" transform="translate(-94.028 -45.95)" fill="#aaa"/>
</svg>
