<svg xmlns="http://www.w3.org/2000/svg" xmlns:xlink="http://www.w3.org/1999/xlink" width="316.404" height="71.613" viewBox="0 0 316.404 71.613">
  <defs>
    <linearGradient id="linear-gradient" x1="0.5" y1="-0.058" x2="0.5" y2="1" gradientUnits="objectBoundingBox">
      <stop offset="0" stop-color="#c72ce3"/>
      <stop offset="0.384" stop-color="#dc84ed"/>
      <stop offset="0.522" stop-color="#d351eb"/>
      <stop offset="0.601" stop-color="#dd85eb"/>
      <stop offset="1" stop-color="#bd1cdb"/>
    </linearGradient>
    <filter id="Path_259" x="0" y="0" width="316.404" height="71.613" filterUnits="userSpaceOnUse">
      <feOffset dy="3" input="SourceAlpha"/>
      <feGaussianBlur stdDeviation="3" result="blur"/>
      <feFlood flood-color="#dae588" flood-opacity="0.333"/>
      <feComposite operator="in" in2="blur"/>
      <feComposite in="SourceGraphic"/>
    </filter>
  </defs>
  <g transform="matrix(1, 0, 0, 1, 0, 0)" filter="url(#Path_259)">
    <g id="Path_259-2" data-name="Path 259" transform="translate(7.4 46.7)" stroke-linecap="round" stroke-linejoin="round" fill="url(#linear-gradient)">
      <path d="M 273.2879943847656 11.41199970245361 C 272.6895141601562 11.41199970245361 271.962890625 11.40192222595215 271.1282958984375 11.38207626342773 C 270.3028564453125 11.36242198944092 269.4577331542969 11.34276866912842 268.5929260253906 11.3231143951416 C 267.7179870605469 11.30323028564453 266.8705444335938 11.2729606628418 266.0741271972656 11.23311424255371 C 265.2738037109375 11.19311428070068 264.6218566894531 11.152268409729 264.1364135742188 11.11180686950684 L 262.3544311523438 10.9632682800293 L 262.8106994628906 9.234268188476562 L 263.9317016601562 4.986268520355225 L 264.2768859863281 3.678114652633667 L 265.6135864257812 3.886960744857788 C 266.7975463867188 4.071960926055908 268.0273742675781 4.175153255462646 269.2689208984375 4.193653106689453 C 270.5738525390625 4.213114738464355 271.7077026367188 4.222999095916748 272.6390075683594 4.222999095916748 C 273.6823120117188 4.222999095916748 274.5540161132812 4.131076335906982 275.2297973632812 3.949729919433594 C 275.8049926757812 3.795422315597534 276.2754211425781 3.558268547058105 276.6279602050781 3.24488377571106 C 276.9892272949219 2.923768520355225 277.2967834472656 2.468345403671265 277.5420532226562 1.891268491744995 C 277.8033142089844 1.276516556739807 278.0212707519531 0.5095115303993225 278.1910400390625 -0.3917217552661896 C 278.1439819335938 -0.3608239591121674 278.0965576171875 -0.3300851881504059 278.0486145019531 -0.2994622588157654 C 277.2294616699219 0.2239223420619965 276.2618408203125 0.6583454012870789 275.172607421875 0.9918069839477539 C 274.0710144042969 1.328999280929565 272.8215637207031 1.499999284744263 271.4590148925781 1.499999284744263 C 269.8844604492188 1.499999284744263 268.5045776367188 1.250768542289734 267.357666015625 0.7592300176620483 C 266.1723327636719 0.2512300312519073 265.1950378417969 -0.4704622626304626 264.452880859375 -1.385769963264465 C 263.7341918945312 -2.272116184234619 263.2028503417969 -3.329808473587036 262.8735046386719 -4.529423713684082 C 262.56396484375 -5.657193183898926 262.4070129394531 -6.892500877380371 262.4070129394531 -8.201001167297363 C 262.4070129394531 -8.754269599914551 262.4469299316406 -9.562461853027344 262.5291137695312 -10.67180824279785 C 262.6126403808594 -11.79992389678955 262.8117065429688 -13.08223152160645 263.1207275390625 -14.48311614990234 C 263.4327392578125 -15.897385597229 263.8950500488281 -17.35907745361328 264.4948425292969 -18.8276538848877 C 265.1220703125 -20.36323165893555 265.9779357910156 -21.77846145629883 267.0386657714844 -23.03403854370117 C 268.1244506835938 -24.3192310333252 269.4878234863281 -25.39403915405273 271.0908813476562 -26.22853851318359 C 272.7358703613281 -27.08480834960938 274.7257080078125 -27.51900100708008 277.0050048828125 -27.51900100708008 C 277.70947265625 -27.51900100708008 278.4829711914062 -27.45326995849609 279.3039245605469 -27.32365417480469 C 280.1770324707031 -27.1858081817627 281.0377807617188 -26.93011665344238 281.8621826171875 -26.5637321472168 C 282.7520446777344 -26.16823196411133 283.5512390136719 -25.59488487243652 284.2376098632812 -24.85950088500977 C 284.4354858398438 -24.64748954772949 284.6212463378906 -24.41830062866211 284.7945861816406 -24.17247772216797 L 286.2147216796875 -26.22380828857422 L 286.6620788574219 -26.8700008392334 L 287.447998046875 -26.8700008392334 L 297.0060119628906 -26.8700008392334 L 298.8551635742188 -26.8700008392334 L 298.4737243652344 -25.06061553955078 L 293.637939453125 -2.120028734207153 C 293.2551879882812 -0.2089071273803711 292.6068420410156 1.582270383834839 291.7108459472656 3.203537702560425 C 290.7849731445312 4.878960609436035 289.4839172363281 6.34938383102417 287.8439331054688 7.573922157287598 C 286.2285461425781 8.780115127563477 284.1981506347656 9.734729766845703 281.8092346191406 10.41123008728027 C 279.46435546875 11.07530689239502 276.5973815917969 11.41199970245361 273.2879943847656 11.41199970245361 Z M 277.5348510742188 -7.048014163970947 C 277.5513916015625 -7.046816825866699 277.5713500976562 -7.046000957489014 277.5950012207031 -7.046000957489014 C 277.7446594238281 -7.046000957489014 277.8882446289062 -7.084885120391846 278.046875 -7.16838550567627 C 278.3444213867188 -7.324962139129639 278.6301879882812 -7.50753927230835 278.8963012695312 -7.711039066314697 C 279.1619262695312 -7.914115905761719 279.3963928222656 -8.124577522277832 279.59326171875 -8.336616516113281 C 279.705810546875 -8.457813262939453 279.7933349609375 -8.555256843566895 279.8610534667969 -8.63286018371582 L 281.8244323730469 -17.91916847229004 C 281.6495666503906 -18.12977409362793 281.4607543945312 -18.34141159057617 281.2594909667969 -18.55227088928223 C 281.1292724609375 -18.68865394592285 281.01953125 -18.73700141906738 280.8399963378906 -18.73700141906738 C 280.66455078125 -18.73700141906738 280.253662109375 -18.73700141906738 279.7505798339844 -17.93527030944824 C 279.1972351074219 -17.05327033996582 278.7377624511719 -15.99800109863281 278.3850402832031 -14.79873180389404 C 278.0150756835938 -13.54069328308105 277.7432250976562 -12.2760009765625 277.5771484375 -11.03977012634277 C 277.4098510742188 -9.794269561767578 277.3250122070312 -8.878847122192383 277.3250122070312 -8.319001197814941 C 277.3250122070312 -7.793857574462891 277.3955688476562 -7.366754531860352 277.5348510742188 -7.048014163970947 Z M 75.67027282714844 11.41199970245361 L 74.45800018310547 11.41199970245361 L 62.42200088500977 11.41199970245361 L 60.57300186157227 11.41199970245361 L 60.95423126220703 9.602729797363281 L 68.38822937011719 -25.67926979064941 L 68.63911437988281 -26.8700008392334 L 69.85600280761719 -26.8700008392334 L 79.47299957275391 -26.8700008392334 L 80.60930633544922 -26.8700008392334 L 80.91696166992188 -25.77611541748047 L 81.39075469970703 -24.09151649475098 C 82.54460144042969 -25.01295471191406 83.79186248779297 -25.72459602355957 85.11700439453125 -26.21592330932617 C 87.02661895751953 -26.92399978637695 88.93900299072266 -27.28300094604492 90.80100250244141 -27.28300094604492 C 92.38346099853516 -27.28300094604492 93.75057983398438 -27.03065490722656 94.86438751220703 -26.53300094604492 C 96.01142120361328 -26.02053833007812 96.94831085205078 -25.30384635925293 97.64904022216797 -24.40288543701172 C 98.32915496826172 -23.52846145629883 98.81854248046875 -22.48284721374512 99.10357666015625 -21.29504013061523 C 99.36595916748047 -20.20180892944336 99.49900054931641 -19.03192329406738 99.49900054931641 -17.81800079345703 C 99.49900054931641 -17.22638511657715 99.45915222167969 -16.38088607788086 99.37718963623047 -15.233154296875 C 99.29434967041016 -14.07288551330566 99.10688781738281 -12.76784706115723 98.82003784179688 -11.35423183441162 C 98.53188323974609 -9.934000968933105 98.11569213867188 -8.455654144287109 97.58303833007812 -6.960193157196045 C 97.02707672119141 -5.399270057678223 96.27703857421875 -3.954577684402466 95.35372924804688 -2.666231393814087 C 94.38850402832031 -1.319346904754639 93.16107940673828 -0.2049622684717178 91.70553588867188 0.645960807800293 C 90.20050048828125 1.525845408439636 88.40738677978516 1.971999287605286 86.37599945068359 1.971999287605286 C 85.27223205566406 1.971999287605286 84.18461608886719 1.837191581726074 83.14342498779297 1.571383833885193 C 82.10980987548828 1.307460784912109 81.15596008300781 0.9474608302116394 80.30838775634766 0.501383900642395 C 79.57098388671875 0.1132560446858406 78.89773559570312 -0.3410569727420807 78.30207061767578 -0.8521908521652222 L 75.92461395263672 10.22673034667969 L 75.67027282714844 11.41199970245361 Z M 79.67182159423828 -7.519783973693848 C 79.83786773681641 -7.33003044128418 80.01896667480469 -7.141415119171143 80.21372985839844 -6.955500602722168 C 80.36792755126953 -6.808346748352051 80.50761413574219 -6.751000881195068 80.71199798583984 -6.751000881195068 C 80.88745880126953 -6.751000881195068 81.29834747314453 -6.751000881195068 81.80142211914062 -7.552731513977051 C 82.35369110107422 -8.432924270629883 82.81257629394531 -9.496231079101562 83.16530609130859 -10.71311569213867 C 83.53561401367188 -11.99069309234619 83.80773162841797 -13.28515434265137 83.97411346435547 -14.56050109863281 C 84.14192199707031 -15.84707736968994 84.22699737548828 -16.80411529541016 84.22699737548828 -17.40500068664551 C 84.22699737548828 -17.90689277648926 84.15983581542969 -18.32330894470215 84.03226470947266 -18.61606025695801 C 84.01226806640625 -18.61777305603027 83.98735046386719 -18.6190013885498 83.95700073242188 -18.6190013885498 C 83.55469512939453 -18.6190013885498 83.16507720947266 -18.46488571166992 82.76584625244141 -18.14784622192383 C 82.26994323730469 -17.75403594970703 81.94950866699219 -17.45644378662109 81.74359893798828 -17.24118614196777 L 79.67182159423828 -7.519783973693848 Z M 195.5260009765625 1.971999287605286 C 193.3718109130859 1.971999287605286 191.3576507568359 1.749460816383362 189.5395355224609 1.310614705085754 C 187.6472625732422 0.8538838624954224 185.9724273681641 0.1081146523356438 184.5615386962891 -0.9059622883796692 C 183.1069183349609 -1.951462268829346 181.9563446044922 -3.319154500961304 181.1416931152344 -4.971039295196533 C 180.3343505859375 -6.608154773712158 179.9250030517578 -8.588115692138672 179.9250030517578 -10.85600090026855 C 179.9250030517578 -13.16077041625977 180.3280029296875 -15.34230804443359 181.1227722167969 -17.34000015258789 C 181.9295043945312 -19.36784744262695 183.1657257080078 -21.16803932189941 184.7970428466797 -22.69057846069336 C 186.4198150634766 -24.20519256591797 188.4953918457031 -25.40511703491211 190.9660034179688 -26.25707817077637 C 193.3944244384766 -27.09442329406738 196.2983093261719 -27.51900100708008 199.5970001220703 -27.51900100708008 C 202.2493133544922 -27.51900100708008 204.6002655029297 -27.29892349243164 206.5845336914062 -26.86484718322754 C 208.7957763671875 -26.38115501403809 210.6429595947266 -25.26934623718262 212.0748138427734 -23.5603084564209 L 212.5477294921875 -22.99584770202637 L 212.3903503417969 -22.27646255493164 L 210.7383422851562 -14.72446250915527 L 210.4803466796875 -13.54500102996826 L 209.2729949951172 -13.54500102996826 L 201.2490081787109 -13.54500102996826 L 199.6581573486328 -13.54500102996826 L 199.7515716552734 -15.13311576843262 C 199.7913513183594 -15.80900096893311 199.8316955566406 -16.41357803344727 199.8714294433594 -16.93007850646973 C 199.9076538085938 -17.40073204040527 199.9259948730469 -17.93769264221191 199.9259948730469 -18.5260009765625 C 199.9259948730469 -19.90661430358887 199.7409820556641 -20.39510345458984 199.6882019042969 -20.50622367858887 C 199.6789093017578 -20.50669860839844 199.6681976318359 -20.50699996948242 199.656005859375 -20.50699996948242 C 199.2653045654297 -20.50699996948242 198.6641235351562 -20.39992332458496 197.9571533203125 -19.4741153717041 C 197.2309265136719 -18.52311706542969 196.6212310791016 -17.35230827331543 196.1450042724609 -15.99415493011475 C 195.6470794677734 -14.57419300079346 195.2727355957031 -13.0570011138916 195.0322723388672 -11.48473167419434 C 194.7892303466797 -9.89561653137207 194.6660003662109 -8.532731056213379 194.6660003662109 -7.434000968933105 C 194.6660003662109 -7.04642391204834 194.6839599609375 -6.643539428710938 194.7193450927734 -6.23650074005127 C 194.7476959228516 -5.910808563232422 194.8105773925781 -5.607000827789307 194.9063110351562 -5.333462238311768 C 194.954833984375 -5.194804668426514 195.0037231445312 -5.101573944091797 195.0441436767578 -5.040058135986328 C 195.0473175048828 -5.040020942687988 195.0505981445312 -5.040000915527344 195.0540008544922 -5.040000915527344 C 195.1323394775391 -5.040000915527344 195.3601226806641 -5.061038970947266 195.7824249267578 -5.255962371826172 C 196.1206207275391 -5.412039279937744 196.4643096923828 -5.670539379119873 196.8039245605469 -6.024308204650879 C 197.1828460693359 -6.419000625610352 197.5612640380859 -6.957847118377686 197.9286499023438 -7.625885486602783 C 198.2888488769531 -8.280770301818848 198.5750427246094 -9.096116065979004 198.7793121337891 -10.04930877685547 L 199.0333862304688 -11.23500061035156 L 200.2460021972656 -11.23500061035156 L 208.6829986572266 -11.23500061035156 L 210.5229187011719 -11.23500061035156 L 210.1522369384766 -9.432808876037598 L 208.4412384033203 -1.113808393478394 L 208.2794189453125 -0.3269622623920441 L 207.5347747802734 -0.02557765506207943 C 205.7863464355469 0.6821146607398987 203.9206237792969 1.198883891105652 201.9893493652344 1.510345458984375 C 200.0901489257812 1.816691517829895 197.9155731201172 1.971999287605286 195.5260009765625 1.971999287605286 Z M 154.9929962158203 1.971999287605286 C 153.9052276611328 1.971999287605286 152.8253021240234 1.811191558837891 151.7832336425781 1.493999242782593 C 150.6983032226562 1.163806915283203 149.7148132324219 0.6472300291061401 148.8600006103516 -0.04138534888625145 C 147.9827728271484 -0.748039186000824 147.2703094482422 -1.653885364532471 146.7424163818359 -2.73369312286377 C 146.2106475830078 -3.821462154388428 145.9409942626953 -5.124962329864502 145.9409942626953 -6.608000755310059 C 145.9409942626953 -9.03646183013916 146.6426544189453 -11.01869297027588 148.0265350341797 -12.49961566925049 C 149.3149566650391 -13.87846183776855 151.0128784179688 -14.9257698059082 153.0731506347656 -15.61253929138184 C 154.0931549072266 -15.95252513885498 155.187255859375 -16.22754859924316 156.3468017578125 -16.43600082397461 L 151.3350067138672 -16.43600082397461 L 149.48095703125 -16.43600082397461 L 149.8680419921875 -18.24915504455566 L 150.9890441894531 -23.50015449523926 L 151.1412353515625 -24.21303939819336 L 151.7957763671875 -24.53388595581055 C 153.9018859863281 -25.56630897521973 156.0923461914062 -26.33111572265625 158.3062744140625 -26.8070011138916 C 160.5041198730469 -27.27946281433105 162.9823150634766 -27.51900100708008 165.6719970703125 -27.51900100708008 C 168.2944946289062 -27.51900100708008 170.5155334472656 -27.30677032470703 172.2734222412109 -26.88819313049316 C 174.1221618652344 -26.44804000854492 175.6406097412109 -25.78319358825684 176.78662109375 -24.9122314453125 C 177.9905395507812 -23.99723243713379 178.8509674072266 -22.88330841064453 179.343994140625 -21.60150146484375 C 179.8018493652344 -20.41100120544434 180.0339965820312 -19.05869293212891 180.0339965820312 -17.58200073242188 C 180.0339965820312 -16.78169250488281 179.9811553955078 -15.91080856323242 179.8769226074219 -14.99361610412598 C 179.7742767333984 -14.09053897857666 179.6585388183594 -13.31407737731934 179.5328826904297 -12.6858081817627 L 179.5309600830078 -12.67619323730469 L 179.5288848876953 -12.66661643981934 L 176.7558898925781 0.3133838772773743 L 176.5023803710938 1.499999284744263 L 175.2890014648438 1.499999284744263 L 165.7899932861328 1.499999284744263 L 164.6536865234375 1.499999284744263 L 164.3460388183594 0.4061146378517151 L 163.8796844482422 -1.252010583877563 C 162.8722839355469 -0.4343979954719543 161.7675170898438 0.2377029955387115 160.5771942138672 0.7558454275131226 C 158.7232360839844 1.562845468521118 156.8444671630859 1.971999287605286 154.9929962158203 1.971999287605286 Z M 164.1762390136719 -11.27391052246094 C 163.5549621582031 -11.2257604598999 163.0130920410156 -11.11799621582031 162.5588836669922 -10.95180797576904 C 161.9527282714844 -10.73007774353027 161.4737701416016 -10.45288562774658 161.1353149414062 -10.1279239654541 C 160.7962341308594 -9.802423477172852 160.5549621582031 -9.45307731628418 160.3977355957031 -9.059924125671387 C 160.231689453125 -8.644885063171387 160.1510009765625 -8.248116493225098 160.1510009765625 -7.847000598907471 C 160.1510009765625 -7.492692947387695 160.1989288330078 -7.024308204650879 160.4272766113281 -6.805116176605225 C 160.6391143798828 -6.601731300354004 160.8489685058594 -6.515000820159912 161.1289978027344 -6.515000820159912 C 161.6328887939453 -6.515000820159912 162.14404296875 -6.709808349609375 162.6917266845703 -7.110538959503174 C 163.1957702636719 -7.479346752166748 163.4879302978516 -7.938077449798584 163.6111145019531 -8.554154396057129 L 163.6122283935547 -8.559654235839844 L 163.6133880615234 -8.565155029296875 L 164.1762390136719 -11.27391052246094 Z M 164.2559967041016 -20.56599998474121 C 162.9091949462891 -20.56599998474121 162.5154266357422 -20.0767707824707 162.3860321044922 -19.91600036621094 C 161.8948822021484 -19.30580902099609 161.5812683105469 -18.57476997375488 161.4272003173828 -17.68115425109863 L 161.2987823486328 -16.93625640869141 C 162.6670989990234 -17.00737762451172 164.0449066162109 -17.05155181884766 165.4187469482422 -17.06831932067871 C 165.4414215087891 -17.20413970947266 165.4649658203125 -17.34728050231934 165.4893493652344 -17.49761581420898 C 165.5939636230469 -18.14273071289062 165.6470031738281 -18.70707702636719 165.6470031738281 -19.17500114440918 C 165.6470031738281 -19.60492324829102 165.5359649658203 -19.99503898620605 165.3075714111328 -20.36765480041504 C 165.2876129150391 -20.40023231506348 165.0243530273438 -20.56599998474121 164.2559967041016 -20.56599998474121 Z M 38.82200241088867 1.971999287605286 C 36.092041015625 1.971999287605286 33.88911437988281 1.237576246261597 32.27438735961914 -0.2109238058328629 C 30.61257743835449 -1.701616168022156 29.77000045776367 -3.655385255813599 29.77000045776367 -6.018000602722168 C 29.77000045776367 -7.123538970947266 29.94619369506836 -8.438193321228027 30.30861663818359 -10.03711605072021 C 30.63946151733398 -11.49673175811768 30.94565391540527 -12.88934707641602 31.21865463256836 -14.17626953125 L 33.69761657714844 -25.68584632873535 L 33.95269393920898 -26.8700008392334 L 35.16400146484375 -26.8700008392334 L 47.1410026550293 -26.8700008392334 L 48.99538421630859 -26.8700008392334 L 48.60788726806641 -25.05657768249512 L 45.65788650512695 -11.25057792663574 L 45.65250015258789 -11.22530841827393 L 45.64623260498047 -11.20023155212402 C 45.57573318481445 -10.91819286346436 45.50323104858398 -10.57315444946289 45.43080902099609 -10.17469310760498 C 45.35226821899414 -9.742654800415039 45.27207946777344 -9.311731338500977 45.19250106811523 -8.893885612487793 C 45.11711502075195 -8.497923851013184 45.05038452148438 -8.116616249084473 44.99415588378906 -7.760539054870605 C 44.9331169128418 -7.374039173126221 44.92399978637695 -7.168270111083984 44.92399978637695 -7.080000877380371 C 44.92399978637695 -6.831639289855957 44.95967102050781 -6.625634670257568 45.03020477294922 -6.465664386749268 C 45.06810760498047 -6.460477352142334 45.12173843383789 -6.456000804901123 45.19400024414062 -6.456000804901123 C 45.57742309570312 -6.456000804901123 45.92884826660156 -6.585654735565186 46.29999923706055 -6.864000797271729 C 46.70188903808594 -7.165395736694336 47.03400421142578 -7.452517509460449 47.29135894775391 -7.720776557922363 L 51.16165542602539 -25.68588447570801 L 51.41673278808594 -26.8700008392334 L 52.62800216674805 -26.8700008392334 L 64.66400146484375 -26.8700008392334 L 66.51888275146484 -26.8700008392334 L 66.13080596923828 -25.05615425109863 L 60.70280838012695 0.3138454258441925 L 60.44900131225586 1.499999284744263 L 59.23600006103516 1.499999284744263 L 49.67800140380859 1.499999284744263 L 48.54169464111328 1.499999284744263 L 48.23403930664062 0.4061146378517151 L 47.77535629272461 -1.224759817123413 C 46.89486312866211 -0.5221361517906189 45.87672424316406 0.09665732085704803 44.73011779785156 0.6248838901519775 C 42.78981018066406 1.518768548965454 40.80204010009766 1.971999287605286 38.82200241088867 1.971999287605286 Z M 258.9233093261719 1.499999284744263 L 257.7120056152344 1.499999284744263 L 245.7350006103516 1.499999284744263 L 243.8859558105469 1.499999284744263 L 244.2672271728516 -0.3093084394931793 L 247.5039215087891 -15.66888046264648 C 247.5862274169922 -16.19759941101074 247.6894226074219 -16.74201583862305 247.8107299804688 -17.28788566589355 C 247.9044647216797 -17.70977020263672 247.9519958496094 -18.08661651611328 247.9519958496094 -18.40800094604492 C 247.9519958496094 -18.56353187561035 247.9338073730469 -18.77001762390137 247.8503112792969 -18.89867210388184 C 247.8231964111328 -18.9051456451416 247.7700347900391 -18.91400146484375 247.6820068359375 -18.91400146484375 C 247.3172302246094 -18.91400146484375 246.955078125 -18.76834678649902 246.5748138427734 -18.46876907348633 C 246.1498870849609 -18.13397979736328 245.7942962646484 -17.83703804016113 245.5125885009766 -17.58187866210938 L 241.7153015136719 0.3113838732242584 L 241.4630737304688 1.499999284744263 L 240.2480010986328 1.499999284744263 L 228.2120056152344 1.499999284744263 L 226.3613433837891 1.499999284744263 L 226.7445068359375 -0.3105776607990265 L 232.1134948730469 -25.68057823181152 L 232.365234375 -26.8700008392334 L 233.5809936523438 -26.8700008392334 L 243.197998046875 -26.8700008392334 L 244.3343048095703 -26.8700008392334 L 244.6419677734375 -25.77611541748047 L 245.1370849609375 -24.01569747924805 C 245.5934600830078 -24.36892127990723 246.0706176757812 -24.7084789276123 246.5661163330078 -25.03246307373047 L 246.58642578125 -25.04573059082031 L 246.6071166992188 -25.05830764770508 C 247.5833129882812 -25.65250015258789 248.7354583740234 -26.20815467834473 250.031494140625 -26.70984649658203 C 251.4185333251953 -27.24677085876465 252.9704284667969 -27.51900100708008 254.6439971923828 -27.51900100708008 C 257.0218811035156 -27.51900100708008 259.0392761230469 -26.8863468170166 260.6401062011719 -25.63857841491699 C 262.3546447753906 -24.30227088928223 263.2239990234375 -22.46503829956055 263.2239990234375 -20.17800140380859 C 263.2239990234375 -19.5805778503418 263.1597595214844 -18.89411544799805 263.0276489257812 -18.07938575744629 C 262.9073791503906 -17.33769226074219 262.7651672363281 -16.55526924133301 262.6048889160156 -15.75388526916504 C 262.4467468261719 -14.96307754516602 262.2760925292969 -14.1498851776123 262.0976257324219 -13.33688545227051 C 261.9246826171875 -12.54911613464355 261.7789306640625 -11.83977031707764 261.664306640625 -11.22857761383057 L 261.6606140136719 -11.20880889892578 L 261.6563720703125 -11.18915462493896 L 259.1783752441406 0.3158454298973083 L 258.9233093261719 1.499999284744263 Z M 224.1122741699219 1.499999284744263 L 222.9020080566406 1.499999284744263 L 210.9250030517578 1.499999284744263 L 209.0743408203125 1.499999284744263 L 209.4575042724609 -0.3105776607990265 L 214.8265075683594 -25.68057823181152 L 215.0782318115234 -26.8700008392334 L 216.2940063476562 -26.8700008392334 L 219.6602630615234 -26.8700008392334 C 219.2720336914062 -27.05026626586914 218.9043121337891 -27.26241683959961 218.5577239990234 -27.50630760192871 C 217.5405426025391 -28.22211647033691 216.3280029296875 -29.63015365600586 216.3280029296875 -32.27300262451172 C 216.3280029296875 -33.3752326965332 216.5625457763672 -34.39011764526367 217.0250701904297 -35.28950119018555 C 217.4833526611328 -36.18065643310547 218.1177673339844 -36.93080902099609 218.9106903076172 -37.51911544799805 C 219.6603088378906 -38.07530975341797 220.5338897705078 -38.50173187255859 221.5071563720703 -38.78661727905273 C 222.4466552734375 -39.06157684326172 223.4320831298828 -39.20100021362305 224.4360046386719 -39.20100021362305 C 226.2779693603516 -39.20100021362305 227.8785400390625 -38.73188400268555 229.1932678222656 -37.80669403076172 C 230.2104644775391 -37.09088516235352 231.4230041503906 -35.69307708740234 231.4230041503906 -33.0989990234375 C 231.4230041503906 -31.93923187255859 231.1703033447266 -30.89900016784668 230.6718902587891 -30.00723075866699 C 230.2010040283203 -29.1645393371582 229.5731201171875 -28.43600082397461 228.8057708740234 -27.8419246673584 C 228.3050384521484 -27.45426750183105 227.7531127929688 -27.12906646728516 227.1572265625 -26.8700008392334 L 228.3890075683594 -26.8700008392334 L 230.2481231689453 -26.8700008392334 L 229.8551177978516 -25.05292320251465 L 224.3681182861328 0.317076176404953 L 224.1122741699219 1.499999284744263 Z M 148.2748870849609 1.499999284744263 L 146.0839996337891 1.499999284744263 L 132.927001953125 1.499999284744263 L 131.8296508789062 1.499999284744263 L 131.4974212646484 0.4541531205177307 L 127.6328964233398 -11.71032619476318 L 125.0720748901367 0.3124992549419403 L 124.8191528320312 1.499999284744263 L 123.6050033569336 1.499999284744263 L 110.8610000610352 1.499999284744263 L 109.0085754394531 1.499999284744263 L 109.3938064575195 -0.3119238018989563 L 117.3588104248047 -37.77692413330078 L 117.6113891601562 -38.96500015258789 L 118.8260040283203 -38.96500015258789 L 134.3430023193359 -38.96500015258789 C 136.2104644775391 -38.96500015258789 138.0045318603516 -38.85134506225586 139.6754608154297 -38.62719345092773 C 141.46142578125 -38.38757705688477 143.0537719726562 -37.89457702636719 144.4082336425781 -37.16180801391602 C 145.8385009765625 -36.38803863525391 146.9919281005859 -35.29392242431641 147.8364562988281 -33.90980911254883 C 148.6868438720703 -32.51611709594727 149.1179962158203 -30.71484756469727 149.1179962158203 -28.55600166320801 C 149.1179962158203 -25.94730758666992 148.3794555664062 -23.505615234375 146.9229278564453 -21.29873085021973 C 145.6709747314453 -19.40186882019043 143.7437438964844 -17.88674926757812 141.1821136474609 -16.78221130371094 L 147.4824676513672 -0.5425391793251038 L 148.2748870849609 1.499999284744263 Z M 129.7211303710938 -21.6190013885498 L 130.6260070800781 -21.6190013885498 C 131.2652282714844 -21.6190013885498 131.7719573974609 -21.81669235229492 132.2206878662109 -22.2411937713623 C 132.8051605224609 -22.79407691955566 133.2890014648438 -23.48200035095215 133.6587677001953 -24.28588485717773 C 134.0551147460938 -25.14746284484863 134.3440399169922 -26.08576965332031 134.517578125 -27.07473182678223 C 134.6983489990234 -28.10519218444824 134.7899932861328 -29.00057792663574 134.7899932861328 -29.73600006103516 C 134.7899932861328 -30.52465438842773 134.6621856689453 -31.18719291687012 134.41015625 -31.70530891418457 C 134.3213043212891 -31.88792419433594 133.8600463867188 -31.95300102233887 133.4580078125 -31.95300102233887 L 132.0074157714844 -31.95300102233887 L 129.7211303710938 -21.6190013885498 Z M 21.1567325592041 1.499999284744263 L 19.94200134277344 1.499999284744263 L 7.13900089263916 1.499999284744263 L 5.284039497375488 1.499999284744263 L 5.672231674194336 -0.3139238059520721 L 8.842972755432129 -15.12993240356445 L 3.150000810623169 -37.08853912353516 L 2.663539409637451 -38.96500015258789 L 4.602000713348389 -38.96500015258789 L 18.76200103759766 -38.96500015258789 L 19.90969276428223 -38.96500015258789 L 20.20980834960938 -37.85723114013672 L 23.29825019836426 -26.45725059509277 L 30.33642387390137 -38.23446273803711 L 30.77296257019043 -38.96500015258789 L 31.62400054931641 -38.96500015258789 L 37.99600219726562 -38.96500015258789 L 40.74977111816406 -38.96500015258789 L 39.25619506835938 -36.65146255493164 L 24.36087608337402 -13.57832431793213 L 21.40923118591309 0.311768501996994 L 21.1567325592041 1.499999284744263 Z" stroke="none"/>
      <path d="M 224.4360046386719 -37.70100021362305 C 223.5706481933594 -37.70100021362305 222.7348480224609 -37.58300018310547 221.9284973144531 -37.34700012207031 C 221.1221618652344 -37.11100006103516 220.4141540527344 -36.766845703125 219.8045043945312 -36.31449890136719 C 219.1948547363281 -35.86215591430664 218.7129974365234 -35.29184722900391 218.3590087890625 -34.60350036621094 C 218.0050048828125 -33.91515350341797 217.8280029296875 -33.13834762573242 217.8280029296875 -32.27300262451172 C 217.8280029296875 -30.66034698486328 218.3590087890625 -29.4803466796875 219.4209899902344 -28.73300170898438 C 220.4830017089844 -27.98565483093262 221.8006591796875 -27.61200141906738 223.3739929199219 -27.61200141906738 C 224.2000122070312 -27.61200141906738 225.00634765625 -27.73000144958496 225.7929992675781 -27.96600151062012 C 226.5796508789062 -28.20200157165527 227.2778472900391 -28.55599975585938 227.8875122070312 -29.02799987792969 C 228.4971618652344 -29.5 228.9888458251953 -30.07034683227539 229.3625030517578 -30.73900032043457 C 229.7361450195312 -31.40765380859375 229.9230041503906 -32.1943473815918 229.9230041503906 -33.0989990234375 C 229.9230041503906 -34.67234802246094 229.3919982910156 -35.83265686035156 228.3300018310547 -36.58000183105469 C 227.2680053710938 -37.32734680175781 225.9700012207031 -37.70100021362305 224.4360046386719 -37.70100021362305 M 4.60198974609375 -37.46500015258789 L 10.38400268554688 -15.16300106048584 L 7.139007568359375 0 L 19.94195556640625 0 L 22.95098876953125 -14.16000080108643 L 37.99600219726562 -37.46500015258789 L 31.62399291992188 -37.46500015258789 L 22.77398681640625 -22.6560001373291 L 18.76199340820312 -37.46500015258789 L 4.60198974609375 -37.46500015258789 M 118.8260040283203 -37.46500015258789 L 110.8610076904297 0 L 123.6049957275391 0 L 127.0859985351562 -16.3430004119873 L 127.7350006103516 -16.3430004119873 L 132.927001953125 0 L 146.0839996337891 0 L 139.2400054931641 -17.64100074768066 C 142.2293395996094 -18.66365432739258 144.3730010986328 -20.15834617614746 145.6710052490234 -22.125 C 146.968994140625 -24.09165382385254 147.6179962158203 -26.23534774780273 147.6179962158203 -28.55599975585938 C 147.6179962158203 -30.44400024414062 147.2640075683594 -31.96815490722656 146.5559997558594 -33.12850189208984 C 145.8480072021484 -34.28884887695312 144.8941497802734 -35.19350051879883 143.6945037841797 -35.84249877929688 C 142.4948425292969 -36.49150085449219 141.0886535644531 -36.92415618896484 139.4759979248047 -37.1405029296875 C 137.8633422851562 -37.35684585571289 136.15234375 -37.46500015258789 134.3430023193359 -37.46500015258789 L 118.8260040283203 -37.46500015258789 M 130.6260070800781 -20.1190013885498 L 127.8529968261719 -20.1190013885498 L 130.8029937744141 -33.45299911499023 L 133.4580078125 -33.45299911499023 C 134.6380004882812 -33.45299911499023 135.4049987792969 -33.08915328979492 135.7590026855469 -32.36149978637695 C 136.1130065917969 -31.63384628295898 136.2899932861328 -30.7586555480957 136.2899932861328 -29.73600006103516 C 136.2899932861328 -28.90999984741211 136.191650390625 -27.93650054931641 135.9949951171875 -26.81550025939941 C 135.7983093261719 -25.69449996948242 135.4738464355469 -24.64234733581543 135.0214996337891 -23.65900039672852 C 134.5691528320312 -22.67565536499023 133.9791564941406 -21.83984756469727 133.2514953613281 -21.1515007019043 C 132.5238494873047 -20.46315383911133 131.6486511230469 -20.1190013885498 130.6260070800781 -20.1190013885498 M 165.6719970703125 -26.01900100708008 C 163.0760040283203 -26.01900100708008 160.7258453369141 -25.7928466796875 158.6215057373047 -25.34049987792969 C 156.5171508789062 -24.88815498352051 154.4620056152344 -24.17034721374512 152.4559936523438 -23.1870002746582 L 151.3350067138672 -17.93600082397461 L 159.9490051269531 -17.93600082397461 C 160.1456604003906 -19.0766544342041 160.5684967041016 -20.05015563964844 161.2174987792969 -20.85650062561035 C 161.8665008544922 -21.6628475189209 162.8793487548828 -22.06600189208984 164.2559967041016 -22.06600189208984 C 165.4360046386719 -22.06600189208984 166.2128143310547 -21.76115417480469 166.5865020751953 -21.1515007019043 C 166.9601593017578 -20.54184722900391 167.1470031738281 -19.88300132751465 167.1470031738281 -19.17500114440918 C 167.1470031738281 -18.62434768676758 167.0879669189453 -17.98515319824219 166.9700012207031 -17.25749969482422 C 166.8520050048828 -16.52984619140625 166.753662109375 -15.96934700012207 166.6750030517578 -15.57600116729736 C 164.3543090820312 -15.57600116729736 162.0435028076172 -15.49734687805176 159.7425079345703 -15.34000110626221 C 157.4414978027344 -15.18265438079834 155.37646484375 -14.79915428161621 153.5475006103516 -14.18950080871582 C 151.718505859375 -13.57984733581543 150.2434997558594 -12.67515468597412 149.1224975585938 -11.47550010681152 C 148.0014953613281 -10.27584648132324 147.4409942626953 -8.653347015380859 147.4409942626953 -6.607999801635742 C 147.4409942626953 -5.349346160888672 147.6573486328125 -4.277500152587891 148.0899963378906 -3.392499923706055 C 148.5226593017578 -2.507501602172852 149.0930023193359 -1.77984619140625 149.8009948730469 -1.209501266479492 C 150.5090026855469 -0.6391544342041016 151.3153076171875 -0.2163467407226562 152.2200012207031 0.05900001525878906 C 153.1246490478516 0.3343448638916016 154.0489959716797 0.4720001220703125 154.9929962158203 0.4720001220703125 C 156.6450042724609 0.4720001220703125 158.3068084716797 0.1081523895263672 159.9785003662109 -0.6195011138916016 C 161.6501617431641 -1.34715461730957 163.1153106689453 -2.399347305297852 164.3740081787109 -3.7760009765625 L 164.7279968261719 -3.7760009765625 L 165.7899932861328 0 L 175.2890014648438 0 L 178.06201171875 -12.98000049591064 C 178.1799926757812 -13.57000064849854 178.2881469726562 -14.2976541519165 178.3865051269531 -15.16300106048584 C 178.4848480224609 -16.02834701538086 178.5339965820312 -16.83465576171875 178.5339965820312 -17.58200073242188 C 178.5339965820312 -18.88000106811523 178.3373107910156 -20.04034805297852 177.9440002441406 -21.0629997253418 C 177.5506591796875 -22.08565521240234 176.8623046875 -22.97065353393555 175.8789978027344 -23.7180004119873 C 174.8956604003906 -24.46534729003906 173.5780029296875 -25.03565406799316 171.9259948730469 -25.42900085449219 C 170.2740020751953 -25.82234764099121 168.1893463134766 -26.01900100708008 165.6719970703125 -26.01900100708008 M 161.1289978027344 -5.01500129699707 C 160.4603118896484 -5.01500129699707 159.8801574707031 -5.251001358032227 159.3885040283203 -5.723001480102539 C 158.8968048095703 -6.195001602172852 158.6510009765625 -6.902999877929688 158.6510009765625 -7.847000122070312 C 158.6510009765625 -8.437000274658203 158.7689971923828 -9.027000427246094 159.0050048828125 -9.617000579833984 C 159.2409973144531 -10.20700073242188 159.6048126220703 -10.73800086975098 160.0964965820312 -11.21000099182129 C 160.5881500244141 -11.6820011138916 161.2371520996094 -12.06550025939941 162.0435028076172 -12.36050033569336 C 162.8498077392578 -12.6555004119873 163.8233032226562 -12.80300045013428 164.9640045166016 -12.80300045013428 L 166.0260009765625 -12.80300045013428 L 165.0820007324219 -8.260000228881836 C 164.8853454589844 -7.276655197143555 164.3838043212891 -6.490001678466797 163.5774993896484 -5.900001525878906 C 162.7711486816406 -5.310001373291016 161.9550018310547 -5.01500129699707 161.1289978027344 -5.01500129699707 M 199.5970001220703 -26.01900100708008 C 196.4503479003906 -26.01900100708008 193.7362976074219 -25.62565422058105 191.4550018310547 -24.8390007019043 C 189.1736907958984 -24.05234718322754 187.2955017089844 -22.97065353393555 185.8204956054688 -21.59400177001953 C 184.3454895019531 -20.21734619140625 183.2441558837891 -18.614501953125 182.5165100097656 -16.78549957275391 C 181.7888488769531 -14.95650100708008 181.4250030517578 -12.98000049591064 181.4250030517578 -10.85600090026855 C 181.4250030517578 -8.810653686523438 181.7789916992188 -7.070154190063477 182.4869995117188 -5.634500503540039 C 183.1950073242188 -4.198846817016602 184.1783447265625 -3.028654098510742 185.43701171875 -2.124000549316406 C 186.6956481933594 -1.21934700012207 188.1805114746094 -0.5605010986328125 189.8915100097656 -0.1475009918212891 C 191.6025085449219 0.2654991149902344 193.4806518554688 0.4720001220703125 195.5260009765625 0.4720001220703125 C 197.8466491699219 0.4720001220703125 199.9215087890625 0.3244991302490234 201.7505035400391 0.02949905395507812 C 203.5794982910156 -0.2655010223388672 205.3200073242188 -0.7473468780517578 206.9720001220703 -1.416000366210938 L 208.6829986572266 -9.735000610351562 L 200.2460021972656 -9.735000610351562 C 200.010009765625 -8.63365364074707 199.6756591796875 -7.689655303955078 199.2430114746094 -6.902999877929688 C 198.8103485107422 -6.11634635925293 198.3580017089844 -5.477153778076172 197.8860015869141 -4.985500335693359 C 197.4140014648438 -4.493846893310547 196.9223480224609 -4.130001068115234 196.4110107421875 -3.894001007080078 C 195.899658203125 -3.658000946044922 195.4473114013672 -3.540000915527344 195.0540008544922 -3.540000915527344 C 194.621337890625 -3.540000915527344 194.2870025634766 -3.658000946044922 194.0509948730469 -3.894001007080078 C 193.8150024414062 -4.130001068115234 193.6281433105469 -4.44465446472168 193.4905090332031 -4.838001251220703 C 193.3528137207031 -5.231346130371094 193.2643127441406 -5.654153823852539 193.2250061035156 -6.106500625610352 C 193.1856536865234 -6.558847427368164 193.1660003662109 -7.001346588134766 193.1660003662109 -7.434000015258789 C 193.1660003662109 -8.61400032043457 193.2938537597656 -10.03984642028809 193.5494995117188 -11.71150016784668 C 193.8051452636719 -13.38315486907959 194.1985015869141 -14.97615432739258 194.7294921875 -16.49050140380859 C 195.260498046875 -18.00484657287598 195.9389953613281 -19.30284690856934 196.7649993896484 -20.38450050354004 C 197.5910034179688 -21.46615409851074 198.5546569824219 -22.00699996948242 199.656005859375 -22.00699996948242 C 200.2853393554688 -22.00699996948242 200.7376556396484 -21.74150085449219 201.0130004882812 -21.21050071716309 C 201.2882995605469 -20.67950057983398 201.4259948730469 -19.78465461730957 201.4259948730469 -18.5260009765625 C 201.4259948730469 -17.89665412902832 201.4063110351562 -17.32634735107422 201.3670043945312 -16.81500053405762 C 201.3276519775391 -16.30365371704102 201.2882995605469 -15.71365451812744 201.2489929199219 -15.04500102996826 L 209.2730102539062 -15.04500102996826 L 210.9250030517578 -22.59700012207031 C 209.7056579589844 -24.05234718322754 208.1520080566406 -24.98649978637695 206.2640075683594 -25.39950180053711 C 204.3760070800781 -25.8125 202.1536560058594 -26.01900100708008 199.5970001220703 -26.01900100708008 M 254.6439971923828 -26.01900100708008 C 253.1493530273438 -26.01900100708008 251.7923431396484 -25.78300094604492 250.572998046875 -25.31100082397461 C 249.3536529541016 -24.8390007019043 248.2916564941406 -24.3276538848877 247.3869934082031 -23.77700042724609 C 246.3643493652344 -23.10834693908691 245.4400024414062 -22.38065528869629 244.6139984130859 -21.59400177001953 L 244.260009765625 -21.59400177001953 L 243.197998046875 -25.3700008392334 L 233.5809936523438 -25.3700008392334 L 228.2120056152344 0 L 240.2480010986328 0 L 244.1419982910156 -18.34900093078613 C 244.4960021972656 -18.70300102233887 244.9974975585938 -19.13565444946289 245.6464996337891 -19.64699935913086 C 246.2955017089844 -20.15834617614746 246.9739990234375 -20.41400146484375 247.6820068359375 -20.41400146484375 C 248.2720031738281 -20.41400146484375 248.7145080566406 -20.22715377807617 249.0095062255859 -19.85350036621094 C 249.3045043945312 -19.4798469543457 249.4519958496094 -18.99800109863281 249.4519958496094 -18.40800094604492 C 249.4519958496094 -17.97534561157227 249.3930053710938 -17.49349975585938 249.2749938964844 -16.96250152587891 C 249.1569976806641 -16.43149948120117 249.0586547851562 -15.91034698486328 248.9799957275391 -15.399001121521 L 245.7350006103516 0 L 257.7120056152344 0 L 260.1900024414062 -11.50500106811523 C 260.3080139160156 -12.1343469619751 260.4555053710938 -12.85215473175049 260.6325073242188 -13.65850067138672 C 260.8095092773438 -14.46484661102295 260.9766845703125 -15.2613468170166 261.1340026855469 -16.04800033569336 C 261.2913208007812 -16.83465576171875 261.428955078125 -17.59184646606445 261.5469970703125 -18.31949996948242 C 261.6650085449219 -19.04715347290039 261.7239990234375 -19.66665458679199 261.7239990234375 -20.17800140380859 C 261.7239990234375 -21.98734664916992 261.0552978515625 -23.41315460205078 259.718017578125 -24.45550155639648 C 258.3806457519531 -25.49784660339355 256.6893005371094 -26.01900100708008 254.6439971923828 -26.01900100708008 M 277.0050048828125 -26.01900100708008 C 274.9596862792969 -26.01900100708008 273.2191467285156 -25.64534759521484 271.7835083007812 -24.89800071716309 C 270.3478393554688 -24.15065383911133 269.1481628417969 -23.2066535949707 268.1845092773438 -22.06600189208984 C 267.2208557128906 -20.92534637451172 266.453857421875 -19.65684700012207 265.8834838867188 -18.26050186157227 C 265.3131713867188 -16.86415481567383 264.8804931640625 -15.49734687805176 264.5855102539062 -14.16000080108643 C 264.2904968261719 -12.82265472412109 264.1036376953125 -11.62300109863281 264.0249938964844 -10.56100082397461 C 263.9463500976562 -9.499000549316406 263.9070129394531 -8.712347030639648 263.9070129394531 -8.201000213623047 C 263.9070129394531 -7.020999908447266 264.0446472167969 -5.929500579833984 264.3200073242188 -4.92650032043457 C 264.5953369140625 -3.923500061035156 265.0280151367188 -3.058155059814453 265.6180114746094 -2.330501556396484 C 266.2080078125 -1.602846145629883 266.98486328125 -1.032501220703125 267.948486328125 -0.6195011138916016 C 268.9121704101562 -0.2065010070800781 270.0823364257812 0 271.4590148925781 0 C 272.6783447265625 0 273.7698364257812 -0.1475009918212891 274.7334899902344 -0.4425010681152344 C 275.6971435546875 -0.7375011444091797 276.5329895019531 -1.111154556274414 277.2409973144531 -1.563501358032227 C 277.9490051269531 -2.015846252441406 278.5291442871094 -2.487846374511719 278.9815063476562 -2.979499816894531 C 279.433837890625 -3.471155166625977 279.7780151367188 -3.894001007080078 280.0140075683594 -4.248001098632812 L 280.427001953125 -4.248001098632812 L 279.718994140625 -0.4130001068115234 C 279.5223388671875 0.7276535034179688 279.2568359375 1.69134521484375 278.9224853515625 2.477998733520508 C 278.5881958007812 3.264652252197266 278.1554870605469 3.893999099731445 277.62451171875 4.366001129150391 C 277.093505859375 4.837997436523438 276.4248352050781 5.182151794433594 275.6184997558594 5.39849853515625 C 274.8121643066406 5.614845275878906 273.8190002441406 5.722999572753906 272.6390075683594 5.722999572753906 C 271.6950073242188 5.722999572753906 270.5641479492188 5.713153839111328 269.2464904785156 5.693500518798828 C 267.9288330078125 5.673847198486328 266.6406860351562 5.565654754638672 265.3819885253906 5.368999481201172 L 264.260986328125 9.617000579833984 C 264.7330017089844 9.656345367431641 265.3623352050781 9.695652008056641 266.1489868164062 9.735000610351562 C 266.9356689453125 9.774345397949219 267.7616882324219 9.803844451904297 268.6270141601562 9.823497772216797 C 269.4923400878906 9.843154907226562 270.3380126953125 9.862846374511719 271.1640014648438 9.882499694824219 C 271.989990234375 9.902153015136719 272.697998046875 9.911998748779297 273.2879943847656 9.911998748779297 C 276.4739990234375 9.911998748779297 279.1781921386719 9.597347259521484 281.4005126953125 8.967998504638672 C 283.6228332519531 8.338653564453125 285.4714965820312 7.473346710205078 286.9465026855469 6.371997833251953 C 288.4215087890625 5.270652770996094 289.5719909667969 3.972652435302734 290.3980102539062 2.477998733520508 C 291.2239990234375 0.9833450317382812 291.8139953613281 -0.6490001678466797 292.1679992675781 -2.419000625610352 L 297.0060119628906 -25.3700008392334 L 287.447998046875 -25.3700008392334 L 284.7929992675781 -21.53499984741211 L 284.4389953613281 -21.53499984741211 C 284.1242980957031 -22.47900009155273 283.6916809082031 -23.24600028991699 283.1409912109375 -23.83600044250488 C 282.5903015136719 -24.42600059509277 281.9609985351562 -24.87834739685059 281.2529907226562 -25.19300079345703 C 280.5450134277344 -25.50765419006348 279.8173522949219 -25.72400093078613 279.0700073242188 -25.84200096130371 C 278.3226623535156 -25.96000099182129 277.6343383789062 -26.01900100708008 277.0050048828125 -26.01900100708008 M 277.5950012207031 -5.546001434326172 C 276.9263000488281 -5.546001434326172 276.4641418457031 -5.811500549316406 276.20849609375 -6.342500686645508 C 275.9528503417969 -6.873500823974609 275.8250122070312 -7.532346725463867 275.8250122070312 -8.319000244140625 C 275.8250122070312 -8.948347091674805 275.9135131835938 -9.921846389770508 276.0905151367188 -11.23950004577637 C 276.2674865722656 -12.55715465545654 276.5526428222656 -13.8846549987793 276.9460144042969 -15.22200107574463 C 277.33935546875 -16.55934715270996 277.8506469726562 -17.72949981689453 278.4800109863281 -18.73250198364258 C 279.1093444824219 -19.73550033569336 279.89599609375 -20.23700141906738 280.8399963378906 -20.23700141906738 C 281.4299926757812 -20.23700141906738 281.9314880371094 -20.02065467834473 282.3445129394531 -19.5880012512207 C 282.7575073242188 -19.15534591674805 283.121337890625 -18.72265434265137 283.4360046386719 -18.29000091552734 L 281.2529907226562 -7.965000152587891 C 281.135009765625 -7.807655334472656 280.9481811523438 -7.591346740722656 280.6925048828125 -7.315999984741211 C 280.4368591308594 -7.040655136108398 280.141845703125 -6.775154113769531 279.8074951171875 -6.519500732421875 C 279.47314453125 -6.263847351074219 279.119140625 -6.037654876708984 278.7455139160156 -5.841001510620117 C 278.3717956542969 -5.644346237182617 277.9883422851562 -5.546001434326172 277.5950012207031 -5.546001434326172 M 90.80099487304688 -25.78300094604492 C 89.10964965820312 -25.78300094604492 87.38880920410156 -25.45849990844727 85.63850402832031 -24.80950164794922 C 83.88815307617188 -24.16050148010254 82.30500793457031 -23.08865356445312 80.88900756835938 -21.59400177001953 L 80.53500366210938 -21.59400177001953 L 79.47300720214844 -25.3700008392334 L 69.85600280761719 -25.3700008392334 L 62.4219970703125 9.911998748779297 L 74.4580078125 9.911998748779297 L 77.40800476074219 -3.835000991821289 L 77.76199340820312 -3.835000991821289 C 78.037353515625 -3.284347534179688 78.46015930175781 -2.743501663208008 79.03050231933594 -2.212501525878906 C 79.60081481933594 -1.681501388549805 80.25965881347656 -1.21934700012207 81.00700378417969 -0.8260002136230469 C 81.75434875488281 -0.4326553344726562 82.59014892578125 -0.1180000305175781 83.51449584960938 0.1180000305175781 C 84.4388427734375 0.3540000915527344 85.39265441894531 0.4720001220703125 86.37600708007812 0.4720001220703125 C 88.14599609375 0.4720001220703125 89.67015075683594 0.09834480285644531 90.94850158691406 -0.6490001678466797 C 92.22685241699219 -1.396347045898438 93.28884887695312 -2.360000610351562 94.13450622558594 -3.540000915527344 C 94.98014831542969 -4.720001220703125 95.65866088867188 -6.027847290039062 96.16999816894531 -7.4635009765625 C 96.68135070800781 -8.899154663085938 97.07469177246094 -10.29549980163574 97.35000610351562 -11.65250015258789 C 97.62535095214844 -13.00950050354004 97.80235290527344 -14.23865413665771 97.88099670410156 -15.34000110626221 C 97.95965576171875 -16.44134712219238 97.99900817871094 -17.26734733581543 97.99900817871094 -17.81800079345703 C 97.99900817871094 -18.91934585571289 97.88099670410156 -19.96165466308594 97.64500427246094 -20.94499969482422 C 97.40899658203125 -21.92834663391113 97.01565551757812 -22.77400016784668 96.46499633789062 -23.48200035095215 C 95.91435241699219 -24.19000053405762 95.17684936523438 -24.7504997253418 94.25250244140625 -25.16350173950195 C 93.32815551757812 -25.57649993896484 92.17765808105469 -25.78300094604492 90.80099487304688 -25.78300094604492 M 80.71200561523438 -5.251001358032227 C 80.12199401855469 -5.251001358032227 79.61065673828125 -5.457500457763672 79.17799377441406 -5.870500564575195 C 78.74534606933594 -6.283500671386719 78.37165832519531 -6.70634651184082 78.0570068359375 -7.138999938964844 L 80.35800170898438 -17.93600082397461 C 80.67265319824219 -18.329345703125 81.16435241699219 -18.79150009155273 81.8330078125 -19.32250213623047 C 82.50164794921875 -19.85350036621094 83.20965576171875 -20.1190013885498 83.95700073242188 -20.1190013885498 C 84.62565612792969 -20.1190013885498 85.08781433105469 -19.86334609985352 85.343505859375 -19.35200119018555 C 85.59919738769531 -18.84065437316895 85.72700500488281 -18.19165420532227 85.72700500488281 -17.40500068664551 C 85.72700500488281 -16.73634719848633 85.63850402832031 -15.72350120544434 85.46150207519531 -14.36650085449219 C 85.28450012207031 -13.00950050354004 84.99931335449219 -11.65250015258789 84.60600280761719 -10.29549980163574 C 84.21269226074219 -8.938501358032227 83.70130920410156 -7.758501052856445 83.07200622558594 -6.755500793457031 C 82.44265747070312 -5.752500534057617 81.656005859375 -5.251001358032227 80.71200561523438 -5.251001358032227 M 35.16400146484375 -25.3700008392334 L 32.68600463867188 -13.86500072479248 C 32.41064453125 -12.56700038909912 32.1058349609375 -11.18050003051758 31.77151489257812 -9.705501556396484 C 31.43716430664062 -8.230501174926758 31.26998901367188 -7.001346588134766 31.26998901367188 -6.018001556396484 C 31.26998901367188 -4.090654373168945 31.93865966796875 -2.527154922485352 33.2760009765625 -1.32750129699707 C 34.61334228515625 -0.1278476715087891 36.46200561523438 0.4720001220703125 38.82199096679688 0.4720001220703125 C 40.59201049804688 0.4720001220703125 42.35214233398438 0.06884574890136719 44.10250854492188 -0.7375011444091797 C 45.85281372070312 -1.543846130371094 47.23934936523438 -2.55665397644043 48.26199340820312 -3.7760009765625 L 48.61599731445312 -3.7760009765625 L 49.67799377441406 0 L 59.23600769042969 0 L 64.66400146484375 -25.3700008392334 L 52.62800598144531 -25.3700008392334 L 48.67500305175781 -7.020999908447266 C 48.32099914550781 -6.588346481323242 47.82931518554688 -6.136001586914062 47.19999694824219 -5.66400146484375 C 46.57064819335938 -5.192001342773438 45.90200805664062 -4.956001281738281 45.19400024414062 -4.956001281738281 C 44.52529907226562 -4.956001281738281 44.06314086914062 -5.162500381469727 43.8074951171875 -5.57550048828125 C 43.55184936523438 -5.988500595092773 43.42401123046875 -6.490001678466797 43.42401123046875 -7.079999923706055 C 43.42401123046875 -7.315999984741211 43.4534912109375 -7.620847702026367 43.51251220703125 -7.994501113891602 C 43.57150268554688 -8.368154525756836 43.64031982421875 -8.761501312255859 43.718994140625 -9.174501419067383 C 43.79766845703125 -9.587501525878906 43.8763427734375 -10.01034736633301 43.95498657226562 -10.44300079345703 C 44.03366088867188 -10.87565422058105 44.11233520507812 -11.24934768676758 44.19100952148438 -11.56400108337402 L 47.14100646972656 -25.3700008392334 L 35.16400146484375 -25.3700008392334 M 216.2940063476562 -25.3700008392334 L 210.9250030517578 0 L 222.9020080566406 0 L 228.3890075683594 -25.3700008392334 L 216.2940063476562 -25.3700008392334 M 224.4360046386719 -40.70100021362305 C 226.5930786132812 -40.70100021362305 228.4840698242188 -40.13992309570312 230.0565032958984 -39.03342437744141 C 231.3641967773438 -38.11315536499023 232.9230041503906 -36.33661651611328 232.9230041503906 -33.0989990234375 C 232.9230041503906 -31.68011665344238 232.606201171875 -30.39369201660156 231.9813537597656 -29.27553939819336 C 231.5986480712891 -28.59071350097656 231.1304626464844 -27.96829605102539 230.5832824707031 -27.41579437255859 C 230.6318664550781 -27.36367607116699 230.6787261962891 -27.30968856811523 230.7238159179688 -27.25380897521973 C 230.8211364746094 -27.1331729888916 230.9082336425781 -27.00612258911133 230.9848175048828 -26.87394332885742 C 231.5098114013672 -27.77998542785645 232.4878845214844 -28.3700008392334 233.5809936523438 -28.3700008392334 L 243.197998046875 -28.3700008392334 C 244.4496765136719 -28.3700008392334 245.55908203125 -27.59476089477539 245.9995727539062 -26.44319915771484 C 247.0128021240234 -27.0440788269043 248.1859130859375 -27.6038932800293 249.4900360107422 -28.10869216918945 C 251.0504608154297 -28.71273231506348 252.7845001220703 -29.01900100708008 254.6439971923828 -29.01900100708008 C 257.3639221191406 -29.01900100708008 259.6915283203125 -28.27973175048828 261.5622253417969 -26.82169342041016 C 263.115234375 -25.61124038696289 264.1184692382812 -24.01474380493164 264.5220947265625 -22.13700866699219 C 264.9361877441406 -22.78850555419922 265.3938293457031 -23.41137504577637 265.8928527832031 -24.00203895568848 C 267.1052856445312 -25.43719291687012 268.6211242675781 -26.63392448425293 270.3982543945312 -27.55904006958008 C 272.25927734375 -28.52780914306641 274.4820861816406 -29.01900100708008 277.0050048828125 -29.01900100708008 C 277.7875671386719 -29.01900100708008 278.6397705078125 -28.94711685180664 279.5378723144531 -28.8053092956543 C 280.5403442382812 -28.64700126647949 281.5273132324219 -28.35400009155273 282.4713745117188 -27.93446159362793 C 283.2520446777344 -27.5875072479248 283.9738159179688 -27.12846183776855 284.6263427734375 -26.5647029876709 L 284.9814147949219 -27.07761573791504 C 285.5417785644531 -27.88703918457031 286.4635925292969 -28.3700008392334 287.447998046875 -28.3700008392334 L 297.0060119628906 -28.3700008392334 C 297.9102172851562 -28.3700008392334 298.7662048339844 -27.96215438842773 299.3358459472656 -27.25992393493652 C 299.9054870605469 -26.55769348144531 300.1279907226562 -25.63600158691406 299.9414978027344 -24.75119400024414 L 295.1059875488281 -1.811977386474609 C 294.6926574707031 0.2453269958496094 293.9921264648438 2.176679611206055 293.0237426757812 3.929075241088867 C 291.9940490722656 5.792266845703125 290.5532836914062 7.422924041748047 288.7413940429688 8.775844573974609 C 286.9786071777344 10.09203720092773 284.7838134765625 11.12784576416016 282.2179260253906 11.85449981689453 C 279.7400817871094 12.55619049072266 276.7356262207031 12.9119987487793 273.2879943847656 12.9119987487793 C 272.6776123046875 12.9119987487793 271.9389953613281 12.90180587768555 271.0926513671875 12.88165283203125 C 270.2677001953125 12.86203765869141 269.4231262207031 12.84234619140625 268.5588989257812 12.82273101806641 C 267.67041015625 12.80253601074219 266.8092041015625 12.77176666259766 265.9991455078125 12.73126983642578 C 265.1708374023438 12.6898078918457 264.5208129882812 12.64907455444336 264.0117797851562 12.60661315917969 C 263.1279296875 12.532958984375 262.3219299316406 12.07192230224609 261.8103637695312 11.3474235534668 C 261.2987670898438 10.62288284301758 261.1340026855469 9.709114074707031 261.3603210449219 8.851539611816406 L 262.4813232421875 4.603538513183594 C 262.8332214355469 3.27000617980957 264.0384826660156 2.368734359741211 265.3794250488281 2.368692398071289 C 265.5332641601562 2.368686676025391 265.6887817382812 2.38054084777832 265.8450927734375 2.404960632324219 C 266.6689758300781 2.533670425415039 267.5171508789062 2.620338439941406 268.3765563964844 2.663883209228516 C 267.8068542480469 2.528858184814453 267.26953125 2.353414535522461 266.7667236328125 2.137922286987305 C 265.3553466796875 1.533037185668945 264.1848449707031 0.6653461456298828 263.2877197265625 -0.4410781860351562 C 262.5349426269531 -1.369552612304688 261.9578857421875 -2.449628829956055 261.5685729980469 -3.657567977905273 L 260.6447448730469 0.63165283203125 C 260.34716796875 2.013422012329102 259.1254272460938 3 257.7120056152344 3 L 245.7350006103516 3 C 244.830810546875 3 243.974853515625 2.592191696166992 243.4052276611328 1.889999389648438 C 243.236328125 1.681793212890625 243.0979156494141 1.454244613647461 242.9916534423828 1.214132308959961 C 242.5194854736328 2.282136917114258 241.4536743164062 3 240.2480010986328 3 L 228.2120056152344 3 C 227.3073425292969 3 226.4510498046875 2.591768264770508 225.8813781738281 1.888999938964844 C 225.7563323974609 1.734710693359375 225.6480712890625 1.569906234741211 225.5571594238281 1.397172927856445 C 225.0487060546875 2.363618850708008 224.0371246337891 3 222.9020080566406 3 L 210.9250030517578 3 C 210.0203552246094 3 209.1640319824219 2.591768264770508 208.5943908691406 1.888999938964844 C 208.4483337402344 1.708803176879883 208.3251342773438 1.51417350769043 208.2258148193359 1.309440612792969 C 208.1836547851562 1.328828811645508 208.1408386230469 1.347333908081055 208.0975799560547 1.364845275878906 C 206.2450408935547 2.114652633666992 204.2703094482422 2.661846160888672 202.2281951904297 2.991230010986328 C 200.2502746582031 3.310230255126953 197.9953460693359 3.472000122070312 195.5260009765625 3.472000122070312 C 193.2533874511719 3.472000122070312 191.1208190917969 3.235383987426758 189.1875762939453 2.768730163574219 C 187.1060485839844 2.266307830810547 185.2550811767578 1.439767837524414 183.6861267089844 0.3120384216308594 C 182.0296630859375 -0.8784999847412109 180.7209625244141 -2.432807922363281 179.79638671875 -4.307615280151367 C 179.6705932617188 -4.562709808349609 179.5534057617188 -4.824514389038086 179.4447937011719 -5.093128204345703 L 178.2228088378906 0.6267681121826172 C 177.9271240234375 2.010845184326172 176.7043151855469 3 175.2890014648438 3 L 165.7899932861328 3 C 164.5754089355469 3 163.4947662353516 2.270011901855469 163.0293273925781 1.174539566040039 C 162.4351348876953 1.532936096191406 161.8167266845703 1.852226257324219 161.1758422851562 2.131191253662109 C 159.1318817138672 3.020883560180664 157.0516967773438 3.472000122070312 154.9929962158203 3.472000122070312 C 153.7571105957031 3.472000122070312 152.5302734375 3.289306640625 151.3464660644531 2.928998947143555 C 150.3558654785156 2.627527236938477 149.43603515625 2.192035675048828 148.6021881103516 1.630527496337891 C 148.5882110595703 1.65211296081543 148.5739593505859 1.673519134521484 148.5593872070312 1.694807052612305 C 148.0001525878906 2.511653900146484 147.0739288330078 3 146.0839996337891 3 L 132.927001953125 3 C 131.6200714111328 3 130.4635467529297 2.153923034667969 130.0678100585938 0.9083461761474609 L 127.9193115234375 -5.85455322265625 L 126.5391998291016 0.6249599456787109 C 126.2441864013672 2.009883880615234 125.02099609375 3 123.6049957275391 3 L 110.8610076904297 3 C 109.9558868408203 3 109.09912109375 2.591344833374023 108.529541015625 1.887922286987305 C 107.9599304199219 1.184499740600586 107.7383422851562 0.2614994049072266 107.9265747070312 -0.6238460540771484 L 115.8915710449219 -38.08884811401367 C 116.1861114501953 -39.47430801391602 117.4095764160156 -40.46500015258789 118.8260040283203 -40.46500015258789 L 134.3430023193359 -40.46500015258789 C 136.2769165039062 -40.46500015258789 138.1381225585938 -40.34684753417969 139.8748779296875 -40.11384582519531 C 141.8416900634766 -39.84999847412109 143.6070709228516 -39.30069351196289 145.1219635009766 -38.48111724853516 C 146.7884216308594 -37.5795783996582 148.1325073242188 -36.30442428588867 149.1169281005859 -34.69107818603516 C 150.1129608154297 -33.05865478515625 150.6179962158203 -30.99453926086426 150.6179962158203 -28.55599975585938 C 150.6179962158203 -27.40764427185059 150.4897613525391 -26.28851127624512 150.2347106933594 -25.20341300964355 C 150.4863891601562 -25.48067855834961 150.7908172607422 -25.71179962158203 151.135498046875 -25.88076972961426 C 153.3512725830078 -26.9669246673584 155.6577758789062 -27.77196311950684 157.9910430908203 -28.27350044250488 C 160.2923126220703 -28.76819229125977 162.8765411376953 -29.01900100708008 165.6719970703125 -29.01900100708008 C 168.4499206542969 -29.01900100708008 170.7229309082031 -28.79930877685547 172.6208801269531 -28.3474235534668 C 174.6740417480469 -27.85853958129883 176.3809661865234 -27.10461616516113 177.6942749023438 -26.10650062561035 C 179.1233825683594 -25.02030944824219 180.1494598388672 -23.6858081817627 180.7440490722656 -22.13996124267578 C 180.9201049804688 -21.68216323852539 181.0670013427734 -21.2051944732666 181.1844787597656 -20.71054267883301 C 181.9085083007812 -21.82530975341797 182.773681640625 -22.85398483276367 183.7735290527344 -23.78719329833984 C 185.5509948730469 -25.44611549377441 187.806396484375 -26.75423049926758 190.4770355224609 -27.67511558532715 C 193.0630798339844 -28.56684684753418 196.1314697265625 -29.01900100708008 199.5970001220703 -29.01900100708008 C 202.3568878173828 -29.01900100708008 204.8157043457031 -28.78726959228516 206.9050750732422 -28.33019256591797 C 209.3763732910156 -27.78960609436035 211.4538269042969 -26.56509590148926 213.0834503173828 -24.6890754699707 L 213.3590087890625 -25.99111557006836 C 213.6181030273438 -27.21537399291992 214.6023864746094 -28.13204765319824 215.8047790527344 -28.33008193969727 C 215.2337493896484 -29.31011581420898 214.8280029296875 -30.59651184082031 214.8280029296875 -32.27300262451172 C 214.8280029296875 -33.61615371704102 215.1183776855469 -34.86184692382812 215.6911163330078 -35.97554016113281 C 216.2553863525391 -37.07273101806641 217.0378875732422 -37.99734497070312 218.0168762207031 -38.72377014160156 C 218.9093017578125 -39.38588714599609 219.9418487548828 -39.89138412475586 221.0858154296875 -40.22623062133789 C 222.1622314453125 -40.5412712097168 223.2893829345703 -40.70100021362305 224.4360046386719 -40.70100021362305 Z M 133.2370147705078 -30.45300102233887 L 133.2118072509766 -30.45300102233887 L 131.7896881103516 -24.02502632141113 C 131.9781951904297 -24.29209136962891 132.1460571289062 -24.5866641998291 132.2960357666016 -24.9127311706543 C 132.6385345458984 -25.65727043151855 132.8888854980469 -26.47188568115234 133.0401611328125 -27.33396148681641 C 133.2059173583984 -28.27903938293457 133.2899932861328 -29.08723068237305 133.2899932861328 -29.73600006103516 C 133.2899932861328 -29.99892616271973 133.2720336914062 -30.23969268798828 133.2370147705078 -30.45300102233887 Z M 149.4666748046875 -15.58876419067383 C 149.2972717285156 -15.72360515594482 149.1414794921875 -15.87757968902588 149.0027313232422 -16.0490779876709 C 148.4331512451172 -16.75307846069336 148.2120361328125 -17.67673110961914 148.401123046875 -18.56234741210938 L 149.1897888183594 -22.25662803649902 C 148.8962707519531 -21.64787483215332 148.5578460693359 -21.05280685424805 148.1748046875 -20.47246170043945 C 146.9851684570312 -18.66996765136719 145.2792816162109 -17.18209075927734 143.0836944580078 -16.02783966064453 L 145.1533660888672 -10.69306755065918 C 145.5671691894531 -11.75378036499023 146.1603393554688 -12.69947719573975 146.9305419921875 -13.52373123168945 C 147.6653442382812 -14.31010055541992 148.5129699707031 -14.99983310699463 149.4666748046875 -15.58876419067383 Z M 164.1142883300781 -18.54464340209961 C 164.1318817138672 -18.73195266723633 164.1424102783203 -18.90547943115234 164.1457977294922 -19.06444931030273 C 163.7518157958984 -19.05308532714844 163.5834045410156 -18.98255157470703 163.5450134277344 -18.96359825134277 C 163.4366607666016 -18.82737731933594 163.3410186767578 -18.67990684509277 163.2577209472656 -18.52024841308594 C 163.5431823730469 -18.52953720092773 163.8286895751953 -18.53767013549805 164.1142883300781 -18.54464340209961 Z M 199.4661560058594 -12.63221645355225 C 199.3235931396484 -12.73755645751953 199.1896820068359 -12.85604381561279 199.0663146972656 -12.98688507080078 C 198.49951171875 -13.58800029754639 198.2056884765625 -14.39626979827881 198.254150390625 -15.22103881835938 C 198.2943115234375 -15.90384674072266 198.3352355957031 -16.517578125 198.3758544921875 -17.0451545715332 C 198.3846435546875 -17.15963745117188 198.3923034667969 -17.27867889404297 198.3988037109375 -17.40205383300781 C 198.0846557617188 -16.82962417602539 197.8042907714844 -16.19307327270508 197.5605010986328 -15.4978084564209 C 197.0932312011719 -14.16519260406494 196.741455078125 -12.73873138427734 196.5150451660156 -11.25796318054199 C 196.2972412109375 -9.833953857421875 196.180419921875 -8.611272811889648 196.1672515869141 -7.619771957397461 C 196.3018798828125 -7.814146041870117 196.4523315429688 -8.054172515869141 196.6143493652344 -8.348731994628906 C 196.9040374755859 -8.87550163269043 197.1389617919922 -9.553384780883789 197.3125762939453 -10.36357688903809 C 197.552734375 -11.48424530029297 198.4006042480469 -12.34558773040771 199.4661560058594 -12.63221645355225 Z M 161.7063140869141 -8.251430511474609 C 161.7434234619141 -8.27617073059082 161.777099609375 -8.299968719482422 161.8059997558594 -8.321115493774414 C 162.0063781738281 -8.467731475830078 162.0907287597656 -8.60076904296875 162.1402282714844 -8.848308563232422 C 162.1417388916016 -8.855653762817383 162.1432342529297 -8.863000869750977 162.1447296142578 -8.870346069335938 L 162.1829376220703 -9.054220199584961 C 162.179931640625 -9.051401138305664 162.1769866943359 -9.048604965209961 162.1741180419922 -9.045846939086914 C 161.9922332763672 -8.871269226074219 161.8667755126953 -8.693655014038086 161.7904205322266 -8.502847671508789 C 161.7559051513672 -8.416526794433594 161.7279205322266 -8.33293342590332 161.7063140869141 -8.251430511474609 Z M 4.60198974609375 -40.46500015258789 L 18.76199340820312 -40.46500015258789 C 20.11672973632812 -40.46500015258789 21.30337524414062 -39.55707550048828 21.65762329101562 -38.24946212768555 L 23.82247924804688 -30.25857162475586 L 29.04879760742188 -39.00396347045898 C 29.59033203125 -39.91015625 30.568359375 -40.46500015258789 31.62399291992188 -40.46500015258789 L 37.99600219726562 -40.46500015258789 C 39.09445190429688 -40.46500015258789 40.10507202148438 -39.86465454101562 40.6304931640625 -38.90003967285156 C 41.15597534179688 -37.9354248046875 41.1121826171875 -36.7607307434082 40.51641845703125 -35.83788299560547 L 35.69537353515625 -28.3700008392334 L 47.14100646972656 -28.3700008392334 C 48.04666137695312 -28.3700008392334 48.90388488769531 -27.96084594726562 49.47346496582031 -27.2567310333252 C 49.64115905761719 -27.04940414428711 49.77867126464844 -26.8229866027832 49.88435363769531 -26.58415985107422 C 50.35664367675781 -27.65241432189941 51.422607421875 -28.3700008392334 52.62800598144531 -28.3700008392334 L 64.66400146484375 -28.3700008392334 C 65.56980895996094 -28.3700008392334 66.42710876464844 -27.96073150634766 66.99668884277344 -27.25638580322266 C 67.09486389160156 -27.13498878479004 67.18267822265625 -27.00707244873047 67.25981140136719 -26.87394332885742 C 67.78475952148438 -27.77993965148926 68.76280212402344 -28.3700008392334 69.85600280761719 -28.3700008392334 L 79.47300720214844 -28.3700008392334 C 80.70236206054688 -28.3700008392334 81.79447937011719 -27.62217712402344 82.2503662109375 -26.50444602966309 C 83.00300598144531 -26.94882965087891 83.78558349609375 -27.32206153869629 84.59553527832031 -27.62238502502441 C 86.67254638671875 -28.39249992370605 88.76039123535156 -28.78300094604492 90.80099487304688 -28.78300094604492 C 92.59573364257812 -28.78300094604492 94.16873168945312 -28.48677062988281 95.47630310058594 -27.90253829956055 C 96.850341796875 -27.28861618041992 97.979736328125 -26.42100143432617 98.83308410644531 -25.32380867004395 C 99.64518737792969 -24.27965545654297 100.2269287109375 -23.04196166992188 100.5621490478516 -21.64511680603027 C 100.8520355224609 -20.43734741210938 100.9990081787109 -19.14969253540039 100.9990081787109 -17.81800079345703 C 100.9990081787109 -17.19038581848145 100.9579315185547 -16.3099250793457 100.8733825683594 -15.12630844116211 C 100.7859191894531 -13.90196228027344 100.5896911621094 -12.53250026702881 100.2900848388672 -11.05592346191406 C 99.98796081542969 -9.566654205322266 99.55258178710938 -8.019308090209961 98.99607849121094 -6.456924438476562 C 98.39311218261719 -4.763999938964844 97.57785034179688 -3.19465446472168 96.57296752929688 -1.792461395263672 C 95.48416137695312 -0.2731552124023438 94.10122680664062 0.9829216003417969 92.46261596679688 1.940883636474609 C 90.72477722167969 2.956846237182617 88.67692565917969 3.472000122070312 86.37600708007812 3.472000122070312 C 85.14715576171875 3.472000122070312 83.93473815917969 3.321537017822266 82.77235412597656 3.024768829345703 C 81.62515258789062 2.731845855712891 80.56108093261719 2.329460144042969 79.60972595214844 1.828729629516602 C 79.50445556640625 1.773324966430664 79.40037536621094 1.716737747192383 79.29736328125 1.658906936645508 L 77.3912353515625 10.54146194458008 C 77.09449768066406 11.92422866821289 75.87226867675781 12.9119987487793 74.4580078125 12.9119987487793 L 62.4219970703125 12.9119987487793 C 61.51780700683594 12.9119987487793 60.66188049316406 12.50419235229492 60.09222412109375 11.80203628540039 C 59.52261352539062 11.09984588623047 59.30003356933594 10.17823028564453 59.48646545410156 9.293460845947266 L 60.92173767089844 2.481634140014648 C 60.43768310546875 2.810653686523438 59.85530090332031 3 59.23600769042969 3 L 49.67799377441406 3 C 48.46365356445312 3 47.38316345214844 2.27020263671875 46.91757202148438 1.175098419189453 C 46.42384338378906 1.46485710144043 45.90359497070312 1.735805511474609 45.35775756835938 1.987268447875977 C 43.21914672851562 2.972461700439453 41.02023315429688 3.472000122070312 38.82199096679688 3.472000122070312 C 35.71102905273438 3.472000122070312 33.17111206054688 2.608575820922852 31.27276611328125 0.9056529998779297 C 29.308349609375 -0.8565006256103516 28.26998901367188 -3.250654220581055 28.26998901367188 -6.018001556396484 C 28.26998901367188 -7.236499786376953 28.45831298828125 -8.65965461730957 28.84573364257812 -10.36869239807129 C 29.175048828125 -11.82157802581787 29.479736328125 -13.20734691619873 29.75131225585938 -14.48753929138184 C 29.751953125 -14.49057769775391 29.75262451171875 -14.49361610412598 29.75326538085938 -14.49665451049805 L 31.26235961914062 -21.50316619873047 L 25.77072143554688 -12.9965181350708 L 22.87643432617188 0.6235771179199219 C 22.58200073242188 2.009191513061523 21.35848999023438 3 19.94195556640625 3 L 7.139007568359375 3 C 6.233154296875 3 5.37579345703125 2.590692520141602 4.8062744140625 1.886344909667969 C 4.2366943359375 1.181961059570312 4.015838623046875 0.2579612731933594 4.205413818359375 -0.6278076171875 L 7.30194091796875 -15.09694957733154 L 1.697998046875 -36.71211624145508 C 1.46502685546875 -37.61080932617188 1.661224365234375 -38.56669235229492 2.229400634765625 -39.30092239379883 C 2.79754638671875 -40.03519439697266 3.673614501953125 -40.46500015258789 4.60198974609375 -40.46500015258789 Z" stroke="none" fill="#dae588"/>
    </g>
  </g>
</svg>
