<svg id="Group_210" data-name="Group 210" xmlns="http://www.w3.org/2000/svg" width="231.017" height="356.552" viewBox="0 0 231.017 356.552">
  <circle id="Ellipse_53" data-name="Ellipse 53" cx="28.755" cy="28.755" r="28.755" transform="translate(0 0.408)" fill="#00eab7"/>
  <g id="Group_209" data-name="Group 209" transform="translate(89.79)">
    <path id="Path_251" data-name="Path 251" d="M796.9,69.028l-18.988-9.566a7.358,7.358,0,0,0-8.776,1.61,12.4,12.4,0,0,0-1.164,1.513L692.562,192.674l-27.238,46.054c-.127.294-.255.585-.388.876-.058.122-.114.247-.169.369a10.646,10.646,0,0,0-.294,1.092c-.039.191-.066.385-.1.576l0,.03c-.064.707-.111,1.41-.15,2.117V406.132a9.378,9.378,0,0,0,9.344,9.087h28.983c4.392,0,8.344-4.592,8.344-9.7v-156.7c0-2.785.776-7.36,2.25-9.768L803.929,83.829C807.443,77.195,804.755,73.124,796.9,69.028Z" transform="translate(-664.219 -58.667)" fill="#00eab7"/>
  </g>
</svg>
