<?xml version="1.0" encoding="utf-8"?>
<!-- Generator: Adobe Illustrator 22.0.1, SVG Export Plug-In . SVG Version: 6.00 Build 0)  -->
<svg version="1.1" id="Layer_1" xmlns="http://www.w3.org/2000/svg" xmlns:xlink="http://www.w3.org/1999/xlink" x="0px" y="0px"
	 viewBox="0 0 128 128" style="enable-background:new 0 0 128 128;" xml:space="preserve">
<style type="text/css">
	.st0{fill:#2AAD6C;}
	.st1{fill:#FFFFFF;}
</style>
<path class="st0" d="M108.4,96.7c0-0.2-0.1-0.4-0.1-0.5L96,40.1c-0.2-1-0.6-1.9-1.2-2.7L69.4,2.7C68.2,1,66.2,0,64.1,0h-0.2
	c-2.1,0-4.1,1-5.3,2.7L33.2,37.4c-0.6,0.8-1,1.7-1.2,2.6L19.7,96.2c0,0.1,0,0.2-0.1,0.3c-0.2,0.9-0.1,1.9,0.1,2.8
	c0.1,0.4,0.3,0.9,0.5,1.3c0.6,1.1,1.4,2,2.4,2.7L60.4,127c1.1,0.7,2.3,1,3.5,1H64c1.2,0,2.5-0.4,3.5-1l36.7-23l2-1.4
	c0.6-0.5,1.1-1.2,1.5-1.9c0.2-0.4,0.4-0.9,0.5-1.4C108.5,98.4,108.5,97.6,108.4,96.7z"/>
<path class="st1" d="M103.5,96.6L91.4,41c-0.1-0.3-0.2-0.5-0.3-0.8L65.6,5.5c-0.1-0.2-0.3-0.3-0.4-0.4l-0.6-0.3
	c-0.2-0.1-0.4-0.1-0.6-0.1c-0.2,0-0.4,0-0.6,0.1l-0.6,0.3c-0.1,0.1-0.3,0.2-0.4,0.4L37,40.2c-0.1,0.1-0.1,0.2-0.2,0.2v0.1
	c-0.1,0.2-0.1,0.3-0.2,0.5L24.3,97.2v0.9c0,0.2,0.1,0.3,0.2,0.4c0.2,0.3,0.4,0.6,0.7,0.8L62.9,123c0.1,0.1,0.3,0.1,0.4,0.2
	c0.2,0.1,0.4,0.1,0.7,0.1c0.2,0,0.4,0,0.7-0.1c0.1,0,0.3-0.1,0.4-0.2l37.4-23.5c0.4-0.2,0.8-0.5,1.1-0.9
	C103.9,98,103.9,97.2,103.5,96.6z M96.9,84.9L84.6,63.3l4.5-14.1C89.1,49.2,96.9,84.9,96.9,84.9z M66,12.8l21.2,29l-5.3,16.7
	L66,30.6V12.8z M64,35.2l16.2,28.6L70.1,95.6H57.9L47.8,63.7L64,35.2z M62,12.8v17.8l-15.9,28l-5.3-16.8C40.8,41.8,62,12.8,62,12.8z
	 M39,49.1l4.5,14.2L31.1,85.1L39,49.1z M45.1,68.5l8.6,27.1h-24L45.1,68.5z M33.2,99.6H55l5.4,17.1L33.2,99.6z M64,114.7l-4.8-15.1
	h9.6L64,114.7z M67.6,116.7L73,99.6h21.8C94.8,99.6,67.6,116.7,67.6,116.7z M74.3,95.6l8.6-27.2l15.4,27.2
	C98.3,95.6,74.3,95.6,74.3,95.6z"/>
</svg>
