<?xml version="1.0" encoding="utf-8"?>
<!-- Generator: Adobe Illustrator 22.0.1, SVG Export Plug-In . SVG Version: 6.00 Build 0)  -->
<svg version="1.1" id="Layer_1" xmlns:svgjs="http://svgjs.com/svgjs"
	 xmlns="http://www.w3.org/2000/svg" xmlns:xlink="http://www.w3.org/1999/xlink" x="0px" y="0px" viewBox="0 0 288 288"
	 style="enable-background:new 0 0 288 288;" xml:space="preserve">
<style type="text/css">
	.st0{fill:#0F0F0F;stroke:#0F0F0F;stroke-width:4;stroke-miterlimit:10;}
</style>
<g id="SvgjsG1008" transform="matrix(0.9167,0,0,0.9167,12.002227357101447,11.995200000000011)">
	<path class="st0" d="M240.3,225.2l-29.9-137c-0.2-0.7-0.4-1.3-0.9-1.8L147.6,1.8C146.7,0.7,145.3,0,144,0s-2.7,0.7-3.6,1.8
		L78.5,86.4c-0.4,0.5-0.7,1.1-0.9,1.8L47.7,225v2c0,0.2,0.2,0.7,0.2,0.9c0.2,0.7,0.9,1.4,1.6,1.8h0.2l91.8,57.6
		c0.7,0.4,1.6,0.7,2.5,0.7c0.9,0,1.6-0.2,2.5-0.7l91.8-57.6h0.2c0.7-0.4,1.1-1.1,1.6-1.8c0.2-0.2,0.2-0.7,0.2-0.9
		C240.5,226.6,240.5,225.9,240.3,225.2L240.3,225.2z M200.9,90 M144,12.2L200.9,90l-41.6,131.4L144,268.9l-15.1-47.5L87.1,90
		L144,12.2z M87.1,90 M82.8,106.4l53.1,166.7l-77.1-50.4L82.8,106.4z M152.1,273.1l52.8-166.7l25.4,118.2L152.1,273.1z"/>
</g>
</svg>
