<?xml version="1.0" encoding="utf-8"?>
<!-- Generator: Adobe Illustrator 22.0.1, SVG Export Plug-In . SVG Version: 6.00 Build 0)  -->
<svg version="1.1" id="Layer_1" xmlns="http://www.w3.org/2000/svg" xmlns:xlink="http://www.w3.org/1999/xlink" x="0px" y="0px"
	 viewBox="0 0 100 100" style="enable-background:new 0 0 100 100;" xml:space="preserve">
<style type="text/css">
	.st0{fill:#FFFFFF;}
</style>
<path class="st0" d="M85.5,12.5l0.2,0.5l0.2,0.5l0.2,0.5l0.2,0.5l0.2,0.5l0.1,0.5l0.1,0.5l0.1,0.5l0.1,0.5l0.1,0.5l0.1,0.4l0.1,0.4
	l0.1,0.4l0.1,0.4l0.1,0.4l0.1,0.4l0.1,0.4l0.1,0.4L88,21l0.1,0.4l0.1,0.4l0.1,0.4l0.1,0.4l0.1,0.4l0.1,0.4l0.1,0.4l0.1,0.4l0,0.4
	l0,0.4l0,0.4l0,0.4l0,0.4l0,0.4l0,0.4l0,0.4l0,0.3l0,0.3l0,0.3l0,0.3l0,0.3l0,0.3l0,0.3l0,0.3v0.3l0,0.3l0,0.3l0,0.3l0,0.3l0,0.3
	l0,0.2l0,0.2l0,0.2l0,0.2l0,0.2l0,0.2l0,0.2l0,0.2l0,0.2l0,0.2l0,0.2l0,0.2l0,0.1l0,0.1l0.2,0.2l0.2,0.2l0.2,0.2l0.2,0.2l0.2,0.2
	l0.2,0.2l0.2,0.2l0.2,0.2l0.2,0.2l0.2,0.3l0.2,0.3l0.2,0.3l0.2,0.3l0.2,0.3l0.2,0.3l0.2,0.3l0.2,0.3l0.2,0.3l0.2,0.3l0.2,0.3
	l0.2,0.3l0.2,0.3l0.2,0.3l0.1,0.3l0.1,0.3l0.1,0.3l0.1,0.3l0.1,0.3l0.1,0.3l0.1,0.3l0.1,0.3l0.1,0.3l0.1,0.3l0.1,0.3l0.1,0.3
	l0.1,0.3l0.1,0.3l0.1,0.3l0.1,0.3l0.1,0.3l0.1,0.3l0.1,0.3l0.1,0.3l0.1,0.3l0.1,0.3l0.1,0.3l0.1,0.3l0.1,0.3l0.1,0.3l0.1,0.3
	l0.1,0.3l0.1,0.3l0,0.4l0,0.4l0,0.4l0,0.4l0,0.4l0,0.4l0,0.4l0,0.4l0,0.4l0,0.4l0,0.4l0,0.4l0,0.4l0,0.4l0,0.4l0,0.4l0,0.4l0,0.4
	l0,0.4l0,0.4l0,0.4l0,0.4l0,0.4l0,0.4l0,0.4l0,0.4l0,0.4l0,0.4l0,0.4l0,0.4l0,0.4l0,0.4l-0.1,0.4L95.4,62l-0.1,0.3l-0.1,0.3L95.2,63
	l-0.1,0.3l-0.1,0.3L95,64l-0.1,0.3l-0.1,0.3L94.8,65l-0.1,0.3l-0.1,0.3L94.5,66l-0.1,0.3l-0.1,0.3L94.3,67l-0.1,0.3l-0.1,0.3
	L94,67.9l-0.1,0.3l-0.1,0.3l-0.1,0.3l-0.1,0.3l-0.1,0.3l-0.1,0.3l-0.1,0.3l-0.1,0.3l-0.1,0.3L93,70.7L92.9,71l-0.1,0.3l-0.1,0.3
	l-0.1,0.3l-0.1,0.3l-0.1,0.3l-0.1,0.3L92,72.9l-0.1,0.3l-0.1,0.2l-0.1,0.2l-0.1,0.2l-0.1,0.2l-0.1,0.2l-0.1,0.2l-0.1,0.2l-0.1,0.2
	l-0.1,0.2l-0.1,0.2l-0.1,0.2L90.2,76l-0.1,0.2l-0.2,0.2l-0.2,0.2l-0.2,0.2L89.5,77l-0.2,0.2l-0.2,0.2L89,77.7l-0.2,0.2l-0.2,0.2
	l-0.2,0.2l-0.2,0.2l-0.2,0.2L88,78.9L87.9,79l-0.2,0.2l-0.2,0.2l-0.2,0.2l-0.2,0.2L87,80l-0.2,0.2l-0.2,0.2l-0.2,0.2l-0.2,0.2
	l-0.2,0.2L86,81l-0.2,0.2l-0.2,0.2l-0.2,0.2l-0.2,0.2l-0.2,0.2l-0.2,0.2l-0.2,0.2l-0.2,0.2l-0.2,0.2l-0.2,0.1L84,82.7l-0.2,0.1
	L83.6,83l-0.2,0.1l-0.2,0.1l-0.2,0.1l-0.2,0.1l-0.2,0.1l-0.2,0.1l-0.2,0.1L82.1,84l-0.2,0.1l-0.2,0.1l-0.2,0.1l-0.2,0.1l-0.2,0.1
	l-0.2,0.1l-0.2,0.1L80.5,85l-0.2,0.1l-0.2,0.1L80,85.3l-0.2,0.1l-0.2,0.1l-0.2,0.1l-0.2,0.1L79,85.8L78.6,86l-0.4,0.2l-0.4,0.2
	l-0.4,0.2L77,86.7l-0.4,0.2l-0.4,0.2l-0.4,0.2l-0.4,0.1L75,87.5l-0.4,0.1l-0.4,0.1l-0.4,0.1L73.4,88L73,88.2l-0.4,0.1l-0.4,0.1
	l-0.4,0.1l-0.4,0.1L71,88.7l-0.4,0.1l-0.4,0.1l-0.4,0.1L69.5,89l-0.4,0.1l-0.4,0.1l-0.4,0.1L68,89.3l-0.4,0.1l-0.4,0.1L67,89.4
	l-0.4,0.1l-0.3,0l-0.3,0l-0.3,0l-0.3,0l-0.3,0l-0.3,0l-0.3,0l-0.3,0l-0.3,0l-0.3,0l-0.3,0l-0.3,0l-0.3,0l-0.6,0l-0.5,0l-0.5,0
	l-0.5,0l-0.5,0l-0.4,0L59,90h-0.4L55,90l-5,0l-5,0l-3.6,0H41l-0.4,0l-0.4,0l-0.5,0l-0.5,0l-0.5,0l-0.5,0l-0.6,0l-0.3,0l-0.3,0
	l-0.3,0l-0.3,0l-0.3,0l-0.3,0l-0.3,0l-0.3,0l-0.3,0l-0.3,0l-0.3,0l-0.3,0l-0.3,0L33,89.4l-0.4-0.1l-0.4-0.1L32,89.3l-0.4-0.1
	l-0.4-0.1l-0.4-0.1L30.5,89l-0.4-0.1l-0.4-0.1l-0.4-0.1L29,88.7l-0.4-0.1l-0.4-0.1l-0.4-0.1l-0.4-0.1L27,88.2L26.6,88l-0.4-0.1
	l-0.4-0.1l-0.4-0.1L25,87.5l-0.4-0.1l-0.4-0.1l-0.4-0.2l-0.4-0.2L23,86.7l-0.4-0.2l-0.4-0.2l-0.4-0.2L21.4,86L21,85.8l-0.2-0.1
	l-0.2-0.1l-0.2-0.1l-0.2-0.1L20,85.3l-0.2-0.1l-0.2-0.1L19.5,85l-0.2-0.1l-0.2-0.1l-0.2-0.1l-0.2-0.1l-0.2-0.1l-0.2-0.1l-0.2-0.1
	L17.9,84l-0.2-0.1l-0.2-0.1l-0.2-0.1l-0.2-0.1l-0.2-0.1l-0.2-0.1l-0.2-0.1L16.4,83l-0.2-0.1L16,82.7l-0.2-0.1l-0.2-0.1l-0.2-0.2
	l-0.2-0.2l-0.2-0.2l-0.2-0.2l-0.2-0.2l-0.2-0.2l-0.2-0.2l-0.2-0.2L14,81l-0.2-0.2l-0.2-0.2l-0.2-0.2l-0.2-0.2l-0.2-0.2L13,80
	l-0.2-0.2l-0.2-0.2l-0.2-0.2l-0.2-0.2L12.1,79L12,78.9l-0.2-0.2l-0.2-0.2l-0.2-0.2l-0.2-0.2l-0.2-0.2L11,77.7l-0.2-0.2l-0.2-0.2
	L10.5,77l-0.2-0.2l-0.2-0.2l-0.1-0.2l-0.1-0.2L9.8,76l-0.1-0.2l-0.1-0.2l-0.1-0.2l-0.1-0.2l-0.1-0.2l-0.1-0.2l-0.1-0.2l-0.1-0.2
	l-0.1-0.2l-0.1-0.2l-0.1-0.2l-0.1-0.2L8,72.9l-0.1-0.3l-0.1-0.3l-0.1-0.3l-0.1-0.3l-0.1-0.3l-0.1-0.3L7.1,71L7,70.7l-0.1-0.3
	l-0.1-0.3l-0.1-0.3l-0.1-0.3l-0.1-0.3l-0.1-0.3l-0.1-0.3l-0.1-0.3l-0.1-0.3L6,67.9l-0.1-0.3l-0.1-0.3L5.7,67l-0.1-0.3l-0.1-0.3
	L5.5,66l-0.1-0.3l-0.1-0.3L5.2,65l-0.1-0.3l-0.1-0.3L5,64l-0.1-0.3l-0.1-0.3L4.8,63l-0.1-0.3l-0.1-0.3L4.6,62l-0.1-0.4l-0.1-0.4
	l0-0.4l0-0.4l0-0.4l0-0.4l0-0.4l0-0.4l0-0.4l0-0.4l0-0.4l0-0.4l0-0.4l0-0.4l0-0.4L4,56l0-0.4l0-0.4l0-0.4l0-0.4l0-0.4l0-0.4l0-0.4
	l0-0.4l0-0.4L4,52l0-0.4l0-0.4l0-0.4l0-0.4l0-0.4l0-0.4l0-0.4l0-0.4l0.1-0.3l0.1-0.3L4.5,48l0.1-0.3l0.1-0.3L4.6,47l0.1-0.3l0.1-0.3
	L4.9,46L5,45.7L5,45.4l0.1-0.3l0.1-0.3l0.1-0.3l0.1-0.3l0.1-0.3l0.1-0.3l0.1-0.3l0.1-0.3L6,42.6l0.1-0.3L6.2,42l0.1-0.3l0.1-0.3
	l0.1-0.3l0.1-0.3l0.1-0.3l0.1-0.3L7.2,40l0.2-0.3l0.2-0.3l0.2-0.3l0.2-0.3L8,38.6l0.2-0.3l0.2-0.3l0.2-0.3l0.2-0.3l0.2-0.3l0.2-0.3
	l0.2-0.3l0.2-0.3l0.2-0.3l0.2-0.2l0.2-0.2l0.2-0.2l0.2-0.2l0.2-0.2l0.2-0.2l0.2-0.2l0.2-0.2l0.2-0.2l0-0.1l0-0.2l0-0.2l0-0.2l0-0.2
	l0-0.2l0-0.2l0-0.2l0-0.2l0-0.2l0-0.2l0-0.2l0-0.2l0-0.2l0-0.3l0-0.3l0-0.3l0-0.3l0-0.3v-0.3l0-0.3l0-0.3l0-0.3l0-0.3l0-0.3l0-0.3
	l0-0.3l0-0.3l0-0.4l0-0.4l0-0.4l0-0.4l0-0.4l0-0.4l0-0.4l0-0.4l0.1-0.4l0.1-0.4l0.1-0.4l0.1-0.4l0.1-0.4l0.1-0.4l0.1-0.4l0.1-0.4
	l0.1-0.4l0.1-0.4l0.1-0.4l0.1-0.4l0.1-0.4l0.1-0.4l0.1-0.4l0.1-0.4L13,17l0.1-0.4l0.1-0.5l0.1-0.5l0.1-0.5l0.1-0.5l0.2-0.5l0.2-0.5
	l0.2-0.5l0.2-0.5l0.2-0.5l0.2-0.5l0.1,0l0.1,0l0.2,0l0.2,0l0.3,0.1l0.3,0.1l0.4,0.1l0.2,0l0.2,0.1l0.2,0.1l0.2,0.1l0.2,0.1l0.3,0.1
	l0.3,0.1l0.3,0.1l0.3,0.1l0.3,0.1l0.3,0.1l0.3,0.1l0.3,0.1l0.3,0.1l0.4,0.1l0.4,0.1l0.4,0.1l0.4,0.1l0.4,0.2l0.4,0.2l0.4,0.2
	l0.4,0.2l0.4,0.2l0.4,0.2l0.5,0.2l0.5,0.2l0.5,0.2l0.5,0.2l0.5,0.2l0.5,0.2l0.5,0.3l0.5,0.3l0.5,0.3l0.5,0.3l0.5,0.3l0.5,0.3
	l0.6,0.3l0.6,0.3l0.6,0.3l0.6,0.3l0.6,0.4l0.6,0.4l0.6,0.4l0.6,0.4l0.3,0.2l0.3,0.2l0.3,0.2l0.3,0.2l0.3,0.2l0.3,0.2l0.3,0.2
	l0.3,0.2l0.3-0.1l0.3-0.1l0.3-0.1l0.3-0.1l0.3-0.1l0.3-0.1l0.3-0.1l0.3-0.1l0.4-0.1l0.4-0.1l0.4,0l0.4,0l0.4,0l0.4,0l0.4,0l0.4,0
	l0.4,0l0.4,0l0.4,0l0.4,0l0.4,0l0.4,0l0.4,0l0.4,0l0.4,0l0.4,0l0.5,0l0.5,0l0.5,0l0.5,0l0.5,0l0.5,0l0.5,0l0.5,0l0.5,0l0.5,0l0.5,0
	l0.5,0l0.4,0l0.4,0l0.4,0l0.4,0l0.4,0l0.4,0l0.4,0l0.4,0l0.4,0l0.4,0l0.4,0l0.4,0l0.4,0l0.4,0l0.4,0l0.4,0l0.4,0.1l0.4,0.1l0.3,0.1
	l0.3,0.1l0.3,0.1l0.3,0.1l0.3,0.1l0.3,0.1l0.3,0.1l0.3,0.1l0.3-0.2l0.3-0.2l0.3-0.2l0.3-0.2l0.3-0.2l0.3-0.2l0.3-0.2l0.3-0.2
	l0.6-0.4l0.6-0.4l0.6-0.4l0.6-0.4l0.6-0.3l0.6-0.3l0.6-0.3l0.6-0.3l0.6-0.3l0.5-0.3l0.5-0.3l0.5-0.3l0.5-0.3l0.5-0.3l0.5-0.2
	l0.5-0.2l0.5-0.2l0.5-0.2l0.5-0.2l0.5-0.2l0.4-0.2l0.4-0.2l0.4-0.2l0.4-0.2l0.4-0.2l0.4-0.2l0.4-0.1l0.4-0.1l0.4-0.1l0.4-0.1
	l0.3-0.1l0.3-0.1l0.3-0.1l0.3-0.1l0.3-0.1l0.3-0.1l0.3-0.1l0.3-0.1l0.3-0.1l0.2-0.1l0.2-0.1l0.2-0.1l0.2-0.1l0.2,0l0.4-0.1l0.3-0.1
	l0.3-0.1l0.2,0l0.2,0l0.1,0l0.1,0L85.5,12.5L85.5,12.5z M31.2,47.6l-0.5,0l-0.5,0l-0.5,0l-0.5,0l-0.2,0l-0.2,0l-0.2,0l-0.2,0l-0.2,0
	l-0.2,0l-0.2,0l-0.2,0l-0.2,0l-0.2,0l-0.2,0l-0.2,0l-0.2,0l-0.2,0l-0.2,0l-0.2,0l-0.2,0l-0.2,0l-0.2,0L25,48.3l-0.2,0.1l-0.2,0.1
	l-0.2,0.1l-0.2,0.1l-0.2,0.1l-0.2,0.1l-0.2,0.1l-0.2,0.1l-0.2,0.1L23,49l-0.2,0.1l-0.2,0.1l-0.2,0.1l-0.2,0.1L22,49.4l-0.2,0.1
	l-0.2,0.1l-0.2,0.1l-0.2,0.1l-0.2,0.1L21,50l-0.2,0.1l-0.2,0.1l-0.2,0.1l-0.2,0.1l-0.2,0.1l-0.2,0.1l-0.2,0.1L19.6,51l-0.2,0.1
	l-0.2,0.1l-0.2,0.1L19,51.5l-0.2,0.2l-0.2,0.2l-0.2,0.2l-0.2,0.2l-0.2,0.2l-0.2,0.2l-0.2,0.2L17.6,53l-0.2,0.2l-0.2,0.2l-0.1,0.2
	L17,53.7l-0.1,0.2l-0.1,0.2l-0.1,0.2l-0.1,0.2l-0.1,0.2l-0.1,0.2L16.1,55l-0.1,0.2l-0.1,0.2l-0.1,0.2l-0.1,0.2L15.5,56l-0.1,0.2
	l-0.1,0.2l-0.1,0.2l-0.1,0.2L15,57l-0.1,0.2l-0.1,0.2l-0.1,0.2l-0.1,0.2L14.6,58l-0.1,0.2l-0.1,0.2l-0.1,0.2l-0.1,0.2L14.2,59
	l-0.1,0.2l-0.1,0.2L14,59.7L14,59.9l0,0.2l0,0.2l0,0.2l0,0.2l0,0.2l0,0.2l0,0.2l0,0.2l0,0.2l0,0.2l0,0.2l0,0.2l0,0.2l0,0.2l0,0.2
	l0,0.2l0,0.2l0,0.2l0,0.2v0.2l0,0.5l0,0.5l0,0.5l0,0.4l0,0.4l0,0.4l0,0.4l0,0.4l0,0.4l0.1,0.4l0.1,0.4l0.1,0.4l0.1,0.4l0.1,0.4
	l0.1,0.4l0.1,0.4l0,0.2l0,0.2l0,0.2l0,0.2l0.1,0.2l0.1,0.2l0.1,0.2l0.1,0.2l0.1,0.2l0.1,0.2l0.1,0.2l0.1,0.2l0.1,0.2l0.1,0.2
	l0.1,0.2l0.1,0.2l0.1,0.2l0.1,0.2l0.1,0.2l0.1,0.2l0.1,0.2l0.1,0.2l0.1,0.2l0.1,0.2l0.1,0.2l0.1,0.2l0.1,0.2l0.1,0.1l0.1,0.1
	l0.1,0.1l0.1,0.1l0.1,0.1l0.1,0.1l0.1,0.1l0.1,0.1l0.1,0.1l0.1,0.1l0.1,0.1l0.1,0.1l0.1,0.1l0.1,0.1l0.1,0.1l0.1,0.1l0.1,0.1
	l0.1,0.1l0.1,0.1l0.2,0.3l0.2,0.2l0.2,0.2l0.2,0.2l0.2,0.2l0.2,0.2l0.2,0.2l0.2,0.2l0.2,0.2l0.2,0.2l0.2,0.2l0.3,0.2l0.3,0.2
	l0.3,0.2l0.3,0.2l0.3,0.2l0.3,0.2l0.3,0.2l0.3,0.2l0.3,0.2l0.3,0.2l0.3,0.2l0.3,0.2l0.3,0.2l0.3,0.2l0.3,0.1l0.3,0.1l0.3,0.1
	l0.3,0.1l0.3,0.1l0.3,0.1l0.3,0.1l0.3,0.1l0.3,0.1l0.3,0.1l0.3,0.1l0.3,0.1l0.4,0.1l0.4,0.1l0.4,0.1l0.4,0.1l0.4,0.1l0.4,0.1
	l0.4,0.1l0.4,0.1l0.4,0.1l0.4,0.1l0.4,0.1l0.4,0.1l0.4,0.1l0.4,0.1l0.4,0.1L34,86l0.4,0.1l0.4,0.1l0.4,0.1l0.4,0.1l0.4,0.1l0.4,0.1
	l0.4,0l0.4,0l0.4,0l0.4,0l0.4,0l0.4,0l0.4,0l0.4,0l0.4,0l0.4,0l0.4,0l0.4,0l0.4,0l0.4,0l0.5,0l0.5,0l0.5,0l0.5,0l0.9,0l0.9,0l0.9,0
	l0.9,0l0.9,0l1,0h0.3l1,0l0.9,0l0.9,0l0.9,0l0.9,0l0.9,0l0.5,0l0.5,0l0.5,0l0.4,0l0.4,0l0.4,0l0.4,0l0.4,0l0.4,0l0.4,0l0.4,0l0.4,0
	l0.4,0l0.4,0l0.4,0l0.4,0l0.4,0l0.4,0l0.4-0.1l0.4-0.1l0.4-0.1l0.4-0.1l0.4-0.1l0.4-0.1l0.4-0.1l0.4-0.1l0.4-0.1l0.4-0.1l0.4-0.1
	l0.4-0.1l0.4-0.1l0.4-0.1l0.4-0.1l0.4-0.1l0.4-0.1l0.4-0.1l0.4-0.1l0.4-0.1l0.4-0.1l0.3-0.1l0.3-0.1l0.3-0.1l0.3-0.1l0.3-0.1
	l0.3-0.1l0.3-0.1l0.3-0.1l0.3-0.1l0.3-0.1l0.3-0.1l0.3-0.1l0.3-0.1l0.3-0.2l0.3-0.2l0.3-0.2l0.3-0.2l0.3-0.2l0.3-0.2l0.3-0.2
	l0.3-0.2l0.3-0.2l0.3-0.2l0.3-0.2l0.3-0.2l0.3-0.2l0.3-0.2l0.2-0.2l0.2-0.2l0.2-0.2l0.2-0.2l0.2-0.2l0.2-0.2l0.2-0.2l0.2-0.2
	l0.2-0.2l0.2-0.2l0.2-0.3l0.2-0.3l0.2-0.3l0.1-0.1l0.1-0.1l0.1-0.1l0.1-0.1l0.1-0.1l0.1-0.1l0.1-0.1l0.1-0.1l0.1-0.1l0.1-0.1
	l0.1-0.1l0.1-0.1l0.1-0.1l0.1-0.1l0.1-0.1l0.1-0.2l0.1-0.2l0.1-0.2l0.1-0.2l0.1-0.2l0.1-0.2l0.1-0.2l0.1-0.2l0.1-0.2l0.1-0.2
	l0.1-0.2l0.1-0.2l0.1-0.2l0.1-0.2l0.1-0.2l0.1-0.2l0.1-0.2l0.1-0.2l0.1-0.2l0.1-0.2l0.1-0.2l0.1-0.4l0.1-0.4l0.1-0.4l0.1-0.4
	l0.1-0.4l0.1-0.4l0.1-0.4l0.1-0.4l0.1-0.4l0.1-0.4l0-0.4l0-0.4l0-0.4l0-0.4l0-0.4l0-0.4l0-0.5l0-0.5l0-0.5V64l0-0.2l0-0.2l0-0.2
	l0-0.2l0-0.2l0-0.2l0-0.2l0-0.2l0-0.2l0-0.2l0-0.2l0-0.2l0-0.2l0-0.2l0-0.2l0-0.2l0-0.2l0-0.2l0-0.2L86,59.7l-0.1-0.2l-0.1-0.2
	L85.8,59l-0.1-0.2l-0.1-0.2l-0.1-0.2l-0.1-0.2L85.4,58l-0.1-0.2l-0.1-0.2l-0.1-0.2l-0.1-0.2L85,57l-0.1-0.2l-0.1-0.2l-0.1-0.2
	l-0.1-0.2L84.5,56l-0.1-0.2l-0.1-0.2l-0.1-0.2l-0.1-0.2L83.9,55l-0.1-0.2l-0.1-0.2l-0.1-0.2l-0.1-0.2l-0.1-0.2l-0.1-0.2L83,53.7
	l-0.1-0.2l-0.1-0.2l-0.2-0.2L82.4,53l-0.2-0.2l-0.2-0.2l-0.2-0.2l-0.2-0.2l-0.2-0.2l-0.2-0.2l-0.2-0.2L81,51.5l-0.2-0.2l-0.2-0.1
	l-0.2-0.1L80.4,51l-0.2-0.1l-0.2-0.1l-0.2-0.1l-0.2-0.1l-0.2-0.1l-0.2-0.1l-0.2-0.1L79,50l-0.2-0.1l-0.2-0.1l-0.2-0.1l-0.2-0.1
	l-0.2-0.1L78,49.4l-0.2-0.1l-0.2-0.1l-0.2-0.1l-0.2-0.1L77,49l-0.2-0.1l-0.2-0.1l-0.2-0.1l-0.2-0.1l-0.2-0.1l-0.2-0.1l-0.2-0.1
	l-0.2-0.1l-0.2-0.1l-0.2-0.1l-0.2-0.1l-0.2,0l-0.2,0l-0.2,0l-0.2,0l-0.2,0l-0.2,0l-0.2,0l-0.2,0l-0.2,0l-0.2,0l-0.2,0l-0.2,0l-0.2,0
	l-0.2,0l-0.2,0l-0.2,0l-0.2,0l-0.2,0l-0.2,0l-0.5,0l-0.5,0l-0.5,0l-0.5,0l-0.5,0l-0.5,0l-0.5,0l-0.5,0l-0.5,0l-0.5,0l-0.5,0l-0.5,0
	l-0.5,0l-0.5,0l-0.5,0l-0.5,0l-1.1,0.1l-2.2,0.2l-1.1,0.1l-1.1,0.1l-0.6,0l-0.6,0l-0.6,0l-0.6,0l-0.6,0l-0.6,0l-0.6,0l-0.6,0l-0.6,0
	l-0.6,0l-0.6,0l-0.6,0h-0.3l-0.6,0l-0.6,0l-0.6,0l-0.6,0l-0.6,0l-0.6,0l-0.6,0l-0.6,0l-0.6,0l-0.6,0l-0.6,0l-0.6,0l-1.1-0.1
	l-1.1-0.1l-2.2-0.2l-1.1-0.1l-0.5,0l-0.5,0l-0.5,0l-0.5,0l-0.5,0l-0.5,0l-0.5,0l-0.5,0l-0.5,0l-0.5,0l-0.5,0L31.2,47.6L31.2,47.6z
	 M66.1,57.5l0.2,0l0.2,0l0.2,0l0.2,0l0.2,0l0.2,0l0.2,0l0.2,0l0.2,0.1l0.2,0.1l0.2,0.1L68,58l0.2,0.1l0.1,0.1l0.1,0.1l0.1,0.1
	l0.1,0.1l0.1,0.1l0.1,0.1l0.1,0.1l0.1,0.1l0.1,0.1l0.1,0.1l0.1,0.1l0.1,0.1l0.1,0.1l0.1,0.1l0.1,0.1l0.1,0.1l0.1,0.1l0.1,0.2
	l0.1,0.2l0.1,0.2l0.1,0.2l0.1,0.2L71,61l0.1,0.2l0.1,0.2l0.1,0.2l0.1,0.2l0.1,0.2l0.1,0.2l0.1,0.2l0.1,0.2l0.1,0.2l0.1,0.2l0.1,0.2
	l0.1,0.2l0.1,0.2l0.1,0.2l0.1,0.2l0,0.2l0,0.2l0,0.2l0,0.2l0,0.2l0,0.2l0,0.2l0,0.2l0,0.2l0,0.2l0,0.2l0,0.2l0,0.2l0,0.2l0,0.2
	l0,0.2l0,0.2l0,0.2l0,0.2l0,0.2l0,0.2l0,0.2l0,0.2l0,0.2l-0.1,0.2L72,69.6l-0.1,0.2L71.9,70l-0.1,0.2l-0.1,0.2l-0.1,0.2l-0.1,0.2
	L71.5,71l-0.1,0.2l-0.1,0.2l-0.1,0.2l-0.1,0.2l-0.1,0.2L71,72.1l-0.1,0.2l-0.1,0.2l-0.1,0.2l-0.1,0.2l-0.1,0.2l-0.1,0.2l-0.1,0.1
	l-0.1,0.1L70,73.5l-0.1,0.1l-0.1,0.1l-0.1,0.1L69.5,74l-0.1,0.1l-0.1,0.1l-0.1,0.1L69,74.5l-0.1,0.1l-0.1,0.1l-0.1,0.1l-0.1,0.1
	l-0.1,0.1L68.1,75L68,75.1l-0.2,0.1l-0.2,0.1l-0.2,0.1l-0.2,0.1l-0.2,0l-0.2,0l-0.2,0l-0.2,0l-0.2,0l-0.2,0l-0.2,0l-0.2,0l-0.2,0
	l-0.2,0l-0.2,0l-0.2,0l-0.2,0l-0.2,0l-0.2,0l-0.2,0l-0.2,0l-0.2,0l-0.2-0.1l-0.2-0.1L64,75.1l-0.2-0.1L63.7,75l-0.1-0.1l-0.1-0.1
	l-0.1-0.1l-0.1-0.1l-0.1-0.1l-0.1-0.1l-0.1-0.1l-0.1-0.1l-0.1-0.1L62.3,74l-0.1-0.1L62,73.8l-0.1-0.1l-0.1-0.1l-0.1-0.1l-0.1-0.1
	l-0.1-0.1l-0.1-0.2l-0.1-0.2l-0.1-0.2L61,72.4l-0.1-0.2l-0.1-0.2l-0.1-0.2l-0.1-0.2l-0.1-0.2l-0.1-0.2l-0.1-0.2L60.3,71l-0.1-0.2
	l-0.1-0.2L60,70.4L60,70.2L59.9,70l-0.1-0.2l-0.1-0.2l-0.1-0.2l0-0.2l0-0.2l0-0.2l0-0.2l0-0.2l0-0.2l0-0.2l0-0.2l0-0.2l0-0.2l0-0.2
	l0-0.2l0-0.2l0-0.2l0-0.2l0-0.2l0-0.2l0-0.2l0-0.2l0-0.2l0-0.2l0-0.2l0-0.2l0-0.2l0-0.2l0-0.2l0.1-0.2l0.1-0.2l0.1-0.2l0.1-0.2
	l0.1-0.2l0.1-0.2l0.1-0.2l0.1-0.2l0.1-0.2l0.1-0.2l0.1-0.2l0.1-0.2l0.1-0.2l0.1-0.2l0.1-0.2l0.1-0.2l0.1-0.2l0.1-0.2l0.1-0.2
	l0.1-0.2l0.1-0.1l0.1-0.1l0.1-0.1l0.1-0.1l0.1-0.1l0.1-0.1l0.1-0.1l0.1-0.1l0.1-0.1l0.1-0.1l0.1-0.1l0.1-0.1l0.1-0.1l0.1-0.1
	l0.1-0.1l0.1-0.1l0.1-0.1l0.2-0.1L64,58l0.2-0.1l0.2-0.1l0.2-0.1l0.2,0l0.2,0l0.2,0l0.2,0l0.2,0l0.2,0l0.2,0l0.2,0l0.2,0
	C65.9,57.5,66.1,57.5,66.1,57.5z M34.3,57.5l0.2,0l0.2,0l0.2,0l0.2,0l0.2,0l0.2,0l0.2,0l0.2,0l0.2,0.1l0.2,0.1L36,58l0.2,0.1
	l0.2,0.1l0.1,0.1l0.1,0.1l0.1,0.1l0.1,0.1l0.1,0.1l0.1,0.1l0.1,0.1l0.1,0.1l0.1,0.1l0.1,0.1l0.1,0.1l0.1,0.1l0.1,0.1l0.1,0.1
	l0.1,0.1l0.1,0.1l0.1,0.1l0.1,0.2l0.1,0.2l0.1,0.2l0.1,0.2l0.1,0.2l0.1,0.2l0.1,0.2l0.1,0.2l0.1,0.2l0.1,0.2l0.1,0.2l0.1,0.2
	l0.1,0.2l0.1,0.2l0.1,0.2l0.1,0.2l0.1,0.2l0.1,0.2l0.1,0.2l0.1,0.2l0,0.2l0,0.2l0,0.2l0,0.2l0,0.2l0,0.2l0,0.2l0,0.2l0,0.2l0,0.2
	l0,0.2l0,0.2l0,0.2l0,0.2l0,0.2l0,0.2l0,0.2l0,0.2l0,0.2l0,0.2l0,0.2l0,0.2l0,0.2l0,0.2l0,0.2l0,0.2l-0.1,0.2l-0.1,0.2L40.1,70
	L40,70.2L40,70.4l-0.1,0.2l-0.1,0.2L39.7,71l-0.1,0.2l-0.1,0.2l-0.1,0.2l-0.1,0.2l-0.1,0.2l-0.1,0.2l-0.1,0.2L39,72.4l-0.1,0.2
	l-0.1,0.2l-0.1,0.2l-0.1,0.2l-0.1,0.1l-0.1,0.1l-0.1,0.1l-0.1,0.1L38,73.8l-0.1,0.1L37.7,74l-0.1,0.1l-0.1,0.1l-0.1,0.1l-0.1,0.1
	l-0.1,0.1l-0.1,0.1l-0.1,0.1l-0.1,0.1l-0.1,0.1L36.3,75l-0.2,0.1L36,75.1l-0.2,0.1l-0.2,0.1l-0.2,0.1l-0.2,0l-0.2,0l-0.2,0l-0.2,0
	l-0.2,0l-0.2,0l-0.2,0l-0.2,0l-0.2,0l-0.2,0l-0.2,0l-0.2,0l-0.2,0l-0.2,0l-0.2,0l-0.2,0l-0.2,0l-0.2,0l-0.2-0.1l-0.2-0.1l-0.2-0.1
	L32,75.1L31.9,75l-0.1-0.1l-0.1-0.1l-0.1-0.1l-0.1-0.1l-0.1-0.1L31,74.5l-0.1-0.1l-0.1-0.1l-0.1-0.1L30.5,74l-0.1-0.1l-0.1-0.1
	l-0.1-0.1L30,73.5l-0.1-0.1l-0.1-0.1l-0.1-0.1l-0.1-0.2l-0.1-0.2l-0.1-0.2l-0.1-0.2l-0.1-0.2L29,72.1l-0.1-0.2l-0.1-0.2l-0.1-0.2
	l-0.1-0.2l-0.1-0.2L28.5,71l-0.1-0.2l-0.1-0.2l-0.1-0.2l-0.1-0.2L28.1,70l-0.1-0.2L28,69.6l-0.1-0.2l0-0.2l0-0.2l0-0.2l0-0.2l0-0.2
	l0-0.2l0-0.2l0-0.2l0-0.2l0-0.2l0-0.2l0-0.2l0-0.2l0-0.2l0-0.2l0-0.2l0-0.2l0-0.2l0-0.2l0-0.2l0-0.2l0-0.2l0-0.2l0-0.2l0-0.2l0-0.2
	l0.1-0.2l0.1-0.2l0.1-0.2l0.1-0.2l0.1-0.2l0.1-0.2l0.1-0.2l0.1-0.2l0.1-0.2l0.1-0.2l0.1-0.2l0.1-0.2l0.1-0.2L29,61l0.1-0.2l0.1-0.2
	l0.1-0.2l0.1-0.2l0.1-0.2l0.1-0.2l0.1-0.1l0.1-0.1l0.1-0.1l0.1-0.1l0.1-0.1l0.1-0.1l0.1-0.1l0.1-0.1l0.1-0.1l0.1-0.1l0.1-0.1
	l0.1-0.1l0.1-0.1l0.1-0.1l0.1-0.1l0.1-0.1l0.1-0.1L32,58l0.2-0.1l0.2-0.1l0.2-0.1l0.2-0.1l0.2,0l0.2,0l0.2,0l0.2,0l0.2,0l0.2,0
	l0.2,0l0.2,0l0.2,0C34.1,57.5,34.3,57.5,34.3,57.5z M15.8,14.5l-0.1,0.4l-0.1,0.4l-0.1,0.4l-0.1,0.4l-0.1,0.4l-0.1,0.4L15,17.5
	l-0.1,0.4l-0.1,0.4l-0.1,0.4l-0.1,0.4l-0.1,0.4l-0.1,0.4l-0.1,0.4l-0.1,0.4l-0.1,0.4l-0.1,0.4l-0.1,0.4l-0.1,0.4l0,0.4l0,0.4l0,0.4
	l0,0.4l0,0.4l0,0.3l0,0.3l0,0.3l0,0.3l0,0.3l0,0.3l0,0.3l0,0.3l0,0.3l0,0.3l0,0.3l0,0.3v0.3l0,0.3l0,0.3l0,0.3l0,0.2l0,0.2l0,0.2
	l0,0.2l0,0.2l0,0.2l0,0.2l0,0.2l0,0.2l0,0.2l0,0.1l0,0.1l0,0.1l0,0.1l0,0.1l0.4,2.2l-1.6,1.8l-0.2,0.2l-0.2,0.2l-0.2,0.2L12,36.4
	l-0.2,0.2l-0.2,0.2l-0.2,0.2l-0.2,0.2l-0.2,0.2l-0.2,0.2L10.8,38l-0.2,0.2l-0.2,0.2l-0.2,0.2l-0.2,0.2L10,39.1l-0.1,0.2l-0.1,0.2
	l-0.1,0.2l-0.1,0.2l-0.1,0.2l-0.1,0.2L9,40.8l-0.1,0.2l-0.1,0.2l-0.1,0.3l-0.1,0.3l-0.1,0.3l-0.1,0.3l-0.1,0.3l-0.1,0.3L8,43.1
	l-0.1,0.3l-0.1,0.3l-0.1,0.3l-0.1,0.3l-0.1,0.3l-0.1,0.3L7.3,45l-0.1,0.3l-0.1,0.3l-0.1,0.3L7,46.1l-0.1,0.3l-0.1,0.3L6.8,47
	l-0.1,0.3l-0.1,0.3l-0.1,0.3l0,0.3l0,0.3l0,0.3l0,0.3l0,0.3l0,0.3l0,0.3l0,0.3l0,0.3l0,0.3l0,0.3l0,0.3l0,0.4l0,0.4l0,0.4l0,0.4
	l0,0.4l0,0.4l0,0.4l0,0.4l0,0.4l0,0.4l0,0.4l0,0.4l0,0.4l0,0.4l0,0.4l0,0.4l0,0.4l0,0.4l0,0.4l0,0.3l0,0.3l0,0.3l0,0.3l0,0.3
	l0.1,0.3L7,61.5l0.1,0.3l0.1,0.3l0.1,0.3l0.1,0.3l0.1,0.3l0.1,0.3l0.1,0.3L7.5,64l0.1,0.3l0.1,0.3l0.1,0.3l0.1,0.3l0.1,0.3L8,65.8
	l0.1,0.3l0.1,0.3l0.1,0.3l0.1,0.3l0.1,0.3l0.1,0.3l0.1,0.3L8.7,68l0.1,0.3l0.1,0.3L9,68.7L9.1,69l0.1,0.3l0.1,0.2l0.1,0.2L9.6,70
	l0.1,0.2l0.1,0.2l0.1,0.2l0.1,0.2l0.1,0.2l0.1,0.2l0.1,0.2l0.1,0.2l0.1,0.2l0.1,0.2l0.1,0.2l0.1,0.2l0.1,0.2l0.1,0.2l0.1,0.2
	l0.1,0.2l0.1,0.2l0.1,0.2l0.1,0.2l0.1,0.2l0.1,0.2l0.1,0.2l0.1,0.2l0.1,0.2l0,0l0,0l-0.1-0.2l-0.1-0.2l-0.1-0.2l-0.1-0.2L12.2,74
	l-0.1-0.2l-0.1-0.2L12,73.4l-0.1-0.2L11.9,73l-0.1-0.2l-0.1-0.2l-0.1-0.2l-0.1-0.2L11.6,72l-0.1-0.4l-0.1-0.4l-0.1-0.4l-0.1-0.4
	l-0.1-0.4l-0.1-0.4L11,68.9L11,68.4l0-0.5l0-0.5l0-0.5l0-0.5l0-0.5l0-0.5l0-0.5l0-0.5l0-0.3l0-0.3l0-0.3l0-0.3l0-0.3l0-0.3l0-0.3
	l0-0.3l0-0.3l0-0.3l0-0.3l0-0.3l0-0.3l0-0.3l0-0.3l0-0.3l0.1-0.3l0.1-0.3l0.1-0.3l0.1-0.3l0.1-0.3l0.1-0.3l0.1-0.3l0.1-0.3l0.1-0.3
	l0.1-0.3l0.1-0.2l0.1-0.3l0.1-0.2l0.1-0.2l0.1-0.2l0.1-0.2l0.1-0.2l0.1-0.2l0.1-0.2l0.1-0.2l0.1-0.2l0.1-0.2l0.1-0.2l0.1-0.2
	l0.1-0.2l0.1-0.2l0.1-0.2l0.1-0.2l0.1-0.2l0.2-0.2l0.2-0.2l0.2-0.2l0.2-0.2l0.2-0.2l0.2-0.2l0.2-0.2l0.2-0.2l0.2-0.2l0.2-0.2
	l0.2-0.2l0.2-0.2l0.2-0.2l0.2-0.2l0.2-0.2l0.2-0.2l0.2-0.2l0.2-0.2l0.2-0.2l0.2-0.2l0.2-0.2l0.2-0.2l0.2-0.2l0.2-0.2l0.2-0.2L19,48
	l0.2-0.2l0.2-0.1l0.2-0.1l0.2-0.1l0.2-0.1l0.2-0.1l0.2-0.1l0.2-0.1l0.2-0.1l0.2-0.1l0.2-0.1l0.2-0.1l0.2-0.1l0.2-0.1l0.2-0.1
	l0.2-0.1l0.2-0.1l0.2-0.1l0.2-0.1l0.2-0.1l0.2-0.1l0.2-0.1l0.2-0.1l0.2-0.1l0.2-0.1l0.2-0.1l0.2-0.1l0.2-0.1l0.2-0.1l0.2,0l0.2,0
	l0.2,0l0.2,0l0.2,0l0.2,0l0.2,0l0.2,0l0.2,0l0.2,0l0.2,0l0.2,0l0.3,0l0.3,0l0.2,0l0.3,0l0.5,0l0.5,0l0.5,0l0.5,0l0.5,0l0.5,0l0.5,0
	l0.5,0l0.5,0l0.5,0l0.5,0l0.5,0l0.5,0l0.5,0l0.5,0l0.5,0l1,0.1l2.1,0.1l1.1,0.1l1.1,0.1l0.5,0l0.5,0l0.5,0l0.5,0l0.5,0l0.5,0l0.5,0
	l0.5,0l0.5,0l0.5,0l0.5,0l0.5,0h0.3l0.5,0l0.5,0l0.5,0l0.5,0l0.5,0l0.5,0l0.5,0l0.5,0l0.5,0l0.5,0l0.5,0l0.5,0l1.1-0.1l1.1-0.1
	l2.1-0.1l1-0.1l0.5,0l0.5,0l0.5,0l0.5,0l0.5,0l0.5,0l0.5,0l0.5,0l0.5,0l0.5,0l0.5,0l0.5,0l0.5,0l0.5,0l0.5,0l0.5,0l0.3,0l0.2,0
	l0.2,0l0.3,0l0.3,0l0.2,0l0.2,0l0.3,0l0.2,0l0.2,0l0.2,0l0.2,0l0.2,0l0.2,0l0.2,0l0.2,0l0.2,0.1l0.2,0.1l0.2,0.1l0.2,0.1l0.2,0.1
	l0.2,0.1l0.2,0.1l0.2,0.1l0.2,0.1l0.2,0.1l0.2,0.1l0.2,0.1l0.2,0.1l0.2,0.1l0.2,0.1l0.2,0.1l0.2,0.1l0.2,0.1l0.2,0.1l0.2,0.1
	l0.2,0.1l0.2,0.1l0.2,0.1l0.2,0.1l0.2,0.1l0.2,0.1l0.2,0.1l0.2,0.1L81,48l0.2,0.2l0.2,0.2l0.2,0.2l0.2,0.2l0.2,0.2l0.2,0.2l0.2,0.2
	l0.2,0.2l0.2,0.2l0.2,0.2l0.2,0.2l0.2,0.2l0.2,0.2l0.2,0.2l0.2,0.2l0.2,0.2l0.2,0.2l0.2,0.2l0.2,0.2l0.2,0.2l0.2,0.2l0.2,0.2
	l0.2,0.2l0.2,0.2l0.2,0.2l0.2,0.2l0.1,0.2l0.1,0.2l0.1,0.2l0.1,0.2l0.1,0.2l0.1,0.2l0.1,0.2l0.1,0.2l0.1,0.2l0.1,0.2l0.1,0.2
	l0.1,0.2l0.1,0.2l0.1,0.2l0.1,0.2l0.1,0.2l0.1,0.2l0.1,0.3l0.1,0.2l0.1,0.3l0.1,0.3l0.1,0.3l0.1,0.3l0.1,0.3l0.1,0.3l0.1,0.3
	l0.1,0.3l0.1,0.3l0.1,0.3l0,0.3l0,0.3l0,0.3l0,0.3l0,0.3l0,0.3l0,0.3l0,0.3l0,0.3l0,0.3l0,0.3l0,0.3l0,0.3l0,0.3l0,0.3l0,0.3l0,0.5
	l0,0.5l0,0.5l0,0.5l0,0.5l0,0.5l0,0.5l0,0.5L89,68.9l-0.1,0.5l-0.1,0.4l-0.1,0.4l-0.1,0.4l-0.1,0.4l-0.1,0.4L88.4,72l-0.1,0.4
	l-0.1,0.4l-0.1,0.4L88,73.4L88,73.6l-0.1,0.2L87.8,74l-0.1,0.2l-0.1,0.2l-0.1,0.2l-0.1,0.2L87.5,75l0.1-0.1l0.1-0.2l0.1-0.2l0.1-0.2
	l0.1-0.2l0.1-0.2l0.1-0.2l0.1-0.2l0.1-0.2l0.1-0.2l0.1-0.2l0.1-0.2l0.1-0.2l0.1-0.2l0.1-0.2l0.1-0.2l0.1-0.2l0.1-0.2l0.1-0.2
	l0.1-0.2l0.1-0.2l0.1-0.2l0.1-0.2l0.1-0.2l0.1-0.2l0.1-0.2l0.1-0.2l0.1-0.3l0.1-0.3l0.1-0.3l0.1-0.3l0.1-0.3l0.1-0.3l0.1-0.3
	l0.1-0.3l0.1-0.3l0.1-0.3l0.1-0.3l0.1-0.3l0.1-0.3l0.1-0.3l0.1-0.3l0.1-0.3l0.1-0.3l0.1-0.3l0.1-0.3l0.1-0.3l0.1-0.3l0.1-0.3
	l0.1-0.3l0.1-0.3l0.1-0.3l0.1-0.3l0.1-0.3l0.1-0.3l0.1-0.3l0-0.3l0-0.3l0-0.3l0-0.3l0-0.3l0-0.4l0-0.4l0-0.4l0-0.4l0-0.4l0-0.4
	l0-0.4l0-0.4l0-0.4l0-0.4l0-0.4l0-0.4l0-0.4l0-0.4l0-0.4l0-0.4l0-0.4l0-0.4l0-0.4l0-0.3l0-0.3l0-0.3l0-0.3l0-0.3l0-0.3l0-0.3l0-0.3
	l0-0.3l0-0.3l0-0.3l0-0.3l-0.1-0.3l-0.1-0.3L93.2,47l-0.1-0.3l-0.1-0.3L93,46.1l-0.1-0.3l-0.1-0.3l-0.1-0.3L92.7,45l-0.1-0.3
	l-0.1-0.3l-0.1-0.3l-0.1-0.3l-0.1-0.3l-0.1-0.3L92,43.1l-0.1-0.3l-0.1-0.3l-0.1-0.3l-0.1-0.3l-0.1-0.3l-0.1-0.3l-0.1-0.3l-0.1-0.2
	L91,40.8l-0.1-0.2l-0.1-0.2l-0.1-0.2l-0.1-0.2l-0.1-0.2l-0.1-0.2L90,39.1l-0.2-0.2l-0.2-0.2l-0.2-0.2l-0.2-0.2L89.2,38l-0.2-0.2
	l-0.2-0.2l-0.2-0.2l-0.2-0.2l-0.2-0.2l-0.2-0.2L88,36.4l-0.2-0.2l-0.2-0.2l-0.2-0.2l-0.2-0.2l-1.6-1.8l0.4-2.2l0-0.1l0-0.1l0-0.1
	l0-0.1l0-0.1l0-0.1l0-0.2l0-0.2l0-0.2l0-0.2l0-0.2l0-0.2l0-0.2l0-0.2l0-0.2l0-0.2l0-0.3l0-0.3V28l0-0.3l0-0.3l0-0.3l0-0.3l0-0.3
	l0-0.3l0-0.3l0-0.3l0-0.3l0-0.3l0-0.3l0-0.4l0-0.4l0-0.4l0-0.4l0-0.4l0-0.4l-0.1-0.4l-0.1-0.4l-0.1-0.4l-0.1-0.4l-0.1-0.4L85.5,20
	l-0.1-0.4l-0.1-0.4l-0.1-0.4l-0.1-0.4l-0.1-0.4L85,17.5l-0.1-0.4l-0.1-0.4l-0.1-0.4l-0.1-0.4l-0.1-0.4l-0.1-0.4l-0.1-0.4l-0.1-0.2
	l-0.2,0l-0.3,0.1l-0.3,0.1L83,14.6l-0.3,0.1l-0.3,0.1L82.1,15l-0.4,0.1l-0.4,0.1L81,15.4l-0.4,0.1l-0.4,0.2l-0.4,0.2L79.4,16
	L79,16.2l-0.4,0.2l-0.4,0.2l-0.5,0.2L77.2,17l-0.5,0.2l-0.5,0.2l-0.5,0.2l-0.5,0.2l-0.5,0.3l-0.5,0.3l-0.5,0.3L73.1,19l-0.5,0.3
	l-0.6,0.3l-0.6,0.3l-0.6,0.3l-0.6,0.3l-0.6,0.3l-0.6,0.4l-0.6,0.4L68,22l-0.3,0.2l-0.3,0.2L67,22.6l-0.3,0.2L66.4,23l-0.3,0.2
	l-0.3,0.2l-1.9,1.3l-2.1-0.6l-0.2-0.1l-0.2-0.1L61,24L60.8,24l-0.3-0.1l-0.3-0.1l-0.3-0.1l-0.3,0l-0.3,0l-0.3,0l-0.4,0l-0.4,0
	l-0.4,0l-0.4,0l-0.4,0l-0.4,0l-0.4,0l-0.4,0l-0.4,0l-0.4,0l-0.4,0l-0.4,0l-0.4,0l-0.4,0l-0.4,0l-0.4,0l-0.4,0l-0.4,0l-0.5,0l-0.5,0
	l-0.5,0l-0.5,0l-0.5,0l-0.5,0l-0.5,0l-0.4,0l-0.4,0l-0.4,0l-0.4,0l-0.4,0l-0.4,0l-0.4,0l-0.4,0l-0.4,0l-0.4,0l-0.4,0l-0.4,0l-0.4,0
	l-0.4,0l-0.4,0l-0.4,0l-0.4,0l-0.3,0l-0.3,0l-0.3,0.1l-0.3,0.1l-0.3,0.1L39.2,24L39,24l-0.3,0.1l-0.2,0.1l-0.2,0.1l-2.1,0.6
	l-1.9-1.3l-0.3-0.2L33.6,23l-0.3-0.2L33,22.6l-0.3-0.2l-0.3-0.2L32,22l-0.6-0.4l-0.6-0.4l-0.6-0.4l-0.6-0.3l-0.6-0.3l-0.6-0.3
	l-0.6-0.3l-0.5-0.3L26.9,19l-0.5-0.3l-0.5-0.3l-0.5-0.3l-0.5-0.3l-0.5-0.2l-0.5-0.2l-0.5-0.2L22.8,17l-0.5-0.2l-0.5-0.2l-0.4-0.2
	L21,16.2L20.6,16l-0.4-0.2l-0.4-0.2l-0.4-0.2L19,15.4l-0.4-0.1l-0.4-0.1L17.9,15l-0.3-0.1l-0.3-0.1L17,14.6l-0.3-0.1l-0.3-0.1
	l-0.3-0.1l-0.2,0C15.9,14.3,15.8,14.5,15.8,14.5z M34.1,59.6L34.1,59.6L34.1,59.6l-0.1,0l0,0l0,0l0,0l0,0l0,0l0,0l0,0l0,0l-0.1,0
	l-0.1,0l-0.1,0l-0.1,0l-0.1,0l-0.1,0l-0.1,0l-0.1,0L33.1,60L33,60.1l-0.1,0.1l-0.1,0.1l-0.1,0.1l-0.1,0.1l-0.1,0.1l-0.1,0.1
	l-0.1,0.1l-0.1,0.1l-0.1,0.1l-0.1,0.1L32.1,61l-0.1,0.1L32,61.3l-0.1,0.1l-0.1,0.1l-0.1,0.1l-0.1,0.1L31.6,62l-0.1,0.2l-0.1,0.2
	l-0.1,0.2l-0.1,0.2l-0.1,0.2l-0.1,0.2l-0.1,0.2l-0.1,0.2L31,63.5L31,63.7l0,0.2l0,0.2l0,0.2l0,0.2l0,0.2l0,0.2l0,0.2l0,0.2l0,0.2
	l0,0.2l0,0.2l0,0.2l0,0.2l0,0.2l0,0.2l0,0.2l0,0.2l0,0.2l0,0.2l0,0.2l0,0.2l0,0.2l0,0.2l0,0.2l0,0.2l0,0.2l0,0.2l0,0.2l0.1,0.2
	l0.1,0.2l0.1,0.2l0.1,0.2l0.1,0.2l0.1,0.2l0.1,0.2l0.1,0.2l0.1,0.2l0.1,0.2l0.1,0.1l0.1,0.1l0.1,0.1l0.1,0.1l0.1,0.1l0.1,0.1
	l0.1,0.1l0.1,0.1l0.1,0.1l0.1,0.1l0.1,0.1l0.1,0.1l0.1,0.1l0.1,0.1l0.1,0.1l0.1,0.1l0.1,0.1L33,73l0.1,0.1l0.1,0.1l0.1,0.1l0.1,0
	l0.1,0l0.1,0l0.1,0l0.1,0l0.1,0l0.1,0l0,0l0.1,0l0,0l0,0l0,0l0,0l0,0l0,0l0,0l0,0l0,0h0h0l0,0l0,0l0,0l0,0l0,0l0,0l0,0l0,0l0,0l0,0
	l0,0l0.1,0l0.1,0l0.1,0l0.1,0l0.1,0l0.1,0l0.1,0l0.1-0.1l0.1-0.1l0.1-0.1l0.1-0.1l0.1-0.1l0.1-0.1l0.1-0.1l0.1-0.1l0.1-0.1l0.1-0.1
	l0.1-0.1l0.1-0.1l0.1-0.1l0.1-0.1l0.1-0.1l0.1-0.1l0.1-0.1l0.1-0.1l0.1-0.1l0.1-0.1l0.1-0.1l0.1-0.1l0.1-0.2l0.1-0.2l0.1-0.2
	l0.1-0.2l0.1-0.2l0.1-0.2l0.1-0.2l0.1-0.2l0.1-0.2l0-0.2l0-0.2l0-0.2l0-0.2l0-0.2l0-0.2l0-0.2l0-0.2l0-0.2l0-0.2l0-0.2l0-0.2l0-0.2
	l0-0.2l0-0.2l0-0.2l0-0.2l0-0.2l0-0.2l0-0.2l0-0.2l0-0.2l0-0.2l0-0.2l0-0.2l0-0.2l0-0.2l0-0.2l-0.1-0.2l-0.1-0.2l-0.1-0.2L37,62.9
	L37,62.8l-0.1-0.2l-0.1-0.2l-0.1-0.2l-0.1-0.2L36.6,62l-0.1-0.1l-0.1-0.1l-0.1-0.1l-0.1-0.1l-0.1-0.1l-0.1-0.1L36.1,61L36,60.9
	l-0.1-0.1l-0.1-0.1l-0.1-0.1l-0.1-0.1l-0.1-0.1l-0.1-0.1l-0.1-0.1l-0.1-0.1l-0.1-0.1l-0.1-0.1L35.1,60L35.1,60L35,59.9l-0.1,0
	l-0.1,0l-0.1,0l-0.1,0l-0.1,0l-0.1,0l-0.1,0l0,0l0,0l0,0l0,0l0,0l0,0l0,0l0,0l0,0l0,0L34.1,59.6L34.1,59.6
	C34.1,59.6,34.1,59.6,34.1,59.6z M65.9,59.6L65.9,59.6L65.9,59.6l-0.1,0l0,0l0,0l0,0l0,0l0,0l0,0l0,0l0,0l-0.1,0l-0.1,0l-0.1,0
	l-0.1,0l-0.1,0l-0.1,0l-0.1,0L64.9,60L64.9,60l-0.1,0.1l-0.1,0.1l-0.1,0.1l-0.1,0.1l-0.1,0.1l-0.1,0.1l-0.1,0.1l-0.1,0.1l-0.1,0.1
	l-0.1,0.1L64,60.9l-0.1,0.1l-0.1,0.1l-0.1,0.1l-0.1,0.1l-0.1,0.1l-0.1,0.1l-0.1,0.1L63.4,62l-0.1,0.2l-0.1,0.2l-0.1,0.2l-0.1,0.2
	L63,62.8L63,62.9l-0.1,0.2l-0.1,0.2l-0.1,0.2l-0.1,0.2l0,0.2l0,0.2l0,0.2l0,0.2l0,0.2l0,0.2l0,0.2l0,0.2l0,0.2l0,0.2l0,0.2l0,0.2
	l0,0.2l0,0.2l0,0.2l0,0.2l0,0.2l0,0.2l0,0.2l0,0.2l0,0.2l0,0.2l0,0.2l0,0.2l0,0.2l0,0.2l0,0.2l0,0.2l0.1,0.2l0.1,0.2l0.1,0.2
	l0.1,0.2l0.1,0.2l0.1,0.2l0.1,0.2l0.1,0.2l0.1,0.2l0.1,0.1l0.1,0.1l0.1,0.1l0.1,0.1l0.1,0.1l0.1,0.1l0.1,0.1l0.1,0.1l0.1,0.1
	l0.1,0.1l0.1,0.1l0.1,0.1l0.1,0.1l0.1,0.1l0.1,0.1l0.1,0.1l0.1,0.1l0.1,0.1l0.1,0.1l0.1,0.1l0.1,0.1l0.1,0.1l0.1,0l0.1,0l0.1,0
	l0.1,0l0.1,0l0.1,0l0.1,0l0,0l0.1,0l0,0l0,0l0,0l0,0l0,0l0,0l0,0l0,0l0,0h0h0l0,0l0,0l0,0l0,0l0,0l0,0l0,0l0,0l0,0l0.1,0l0,0l0.1,0
	l0.1,0l0.1,0l0.1,0l0.1,0l0.1,0l0.1,0l0.1-0.1l0.1-0.1L67,73l0.1-0.1l0.1-0.1l0.1-0.1l0.1-0.1l0.1-0.1l0.1-0.1l0.1-0.1l0.1-0.1
	l0.1-0.1l0.1-0.1l0.1-0.1l0.1-0.1l0.1-0.1l0.1-0.1l0.1-0.1l0.1-0.1l0.1-0.1l0.1-0.1l0.1-0.2l0.1-0.2l0.1-0.2l0.1-0.2l0.1-0.2
	l0.1-0.2l0.1-0.2l0.1-0.2l0.1-0.2l0.1-0.2l0-0.2l0-0.2l0-0.2l0-0.2l0-0.2l0-0.2l0-0.2l0-0.2l0-0.2l0-0.2l0-0.2l0-0.2l0-0.2l0-0.2
	l0-0.2l0-0.2l0-0.2l0-0.2l0-0.2l0-0.2l0-0.2l0-0.2l0-0.2l0-0.2l0-0.2l0-0.2l0-0.2L69,63.7L69,63.5l-0.1-0.2l-0.1-0.2l-0.1-0.2
	l-0.1-0.2l-0.1-0.2l-0.1-0.2l-0.1-0.2l-0.1-0.2L68.4,62l-0.1-0.1l-0.1-0.1l-0.1-0.1l-0.1-0.1L68,61.3l-0.1-0.1l-0.1-0.1l-0.1-0.1
	l-0.1-0.1l-0.1-0.1l-0.1-0.1l-0.1-0.1l-0.1-0.1l-0.1-0.1l-0.1-0.1l-0.1-0.1l-0.1-0.1L67,60.1L66.9,60L66.9,60l-0.1,0l-0.1,0l-0.1,0
	l-0.1,0l-0.1,0l-0.1,0l-0.1,0l-0.1,0l0,0l0,0l0,0l0,0l0,0l0,0l0,0l0,0l0,0l0,0L65.9,59.6L65.9,59.6L65.9,59.6L65.9,59.6z"/>
</svg>
